<?xml version="1.0" encoding="UTF-8"?>
<svg width="217px" height="40px" viewBox="0 0 217 40" version="1.1" xmlns="http://www.w3.org/2000/svg" xmlns:xlink="http://www.w3.org/1999/xlink">
    <!-- Generator: Sketch 58 (84663) - https://sketch.com -->
    <title>phalanx-text</title>
    <desc>Created with Sketch.</desc>
    <defs>
        <filter x="-7.6%" y="-42.0%" width="114.7%" height="184.1%" filterUnits="objectBoundingBox" id="filter-1">
            <feOffset dx="0" dy="0" in="SourceAlpha" result="shadowOffsetOuter1"></feOffset>
            <feGaussianBlur stdDeviation="4.5" in="shadowOffsetOuter1" result="shadowBlurOuter1"></feGaussianBlur>
            <feColorMatrix values="0 0 0 0 0.0666666667   0 0 0 0 0.207843137   0 0 0 0 0.301960784  0 0 0 0.591318837 0" type="matrix" in="shadowBlurOuter1" result="shadowMatrixOuter1"></feColorMatrix>
            <feMerge>
                <feMergeNode in="shadowMatrixOuter1"></feMergeNode>
                <feMergeNode in="SourceGraphic"></feMergeNode>
            </feMerge>
        </filter>
        <polygon id="path-2" points="0 0.084305685 24.8884436 0.084305685 24.8884436 21.248891 0 21.248891"></polygon>
        <polygon id="path-4" points="0.0351910531 0.0852190121 24.7686486 0.0852190121 24.7686486 22.1808015 0.0351910531 22.1808015"></polygon>
    </defs>
    <g id="Page-1" stroke="none" stroke-width="1" fill="none" fill-rule="evenodd">
        <g id="Planning-Page" transform="translate(-63.000000, -36.000000)">
            <g id="Sidemenu">
                <g id="Logo" filter="url(#filter-1)" transform="translate(27.000000, 32.000000)">
                    <g id="phalanx-text" transform="translate(45.000000, 13.000000)">
                        <path d="M48.0695806,20.5355266 L48.0695806,14.1619944 C48.0695806,13.6246226 47.6339795,13.1890214 47.0966076,13.1890214 L33.5262442,13.1890214 C32.9888723,13.1890214 32.5530848,13.6246226 32.5530848,14.1619944 L32.5530848,20.4842684 C32.5530848,21.1170736 32.0401305,21.630028 31.4073253,21.630028 L28.1709786,21.630028 C27.9860764,21.630028 27.8362162,21.4799814 27.8362162,21.2952656 L27.8362162,0.800205033 C27.8362162,0.615489282 27.9860764,0.465442684 28.1709786,0.465442684 L31.4462815,0.465442684 C32.0576514,0.465442684 32.5530848,0.961062442 32.5530848,1.57243243 L32.5530848,8.11968313 C32.5530848,8.65686859 32.9888723,9.0926561 33.5262442,9.0926561 L47.0966076,9.0926561 C47.6339795,9.0926561 48.0695806,8.65686859 48.0695806,8.11968313 L48.0695806,1.5873439 C48.0695806,0.9677726 48.5719105,0.465442684 49.1914818,0.465442684 L52.420932,0.465442684 C52.6056477,0.465442684 52.7556943,0.615489282 52.7556943,0.800205033 L52.7556943,21.2952656 C52.7556943,21.4799814 52.6056477,21.630028 52.420932,21.630028 L49.164082,21.630028 C48.5596086,21.630028 48.0695806,21.14 48.0695806,20.5355266" id="Fill-1" fill="#FFFFFF"></path>
                        <g id="Group-5" transform="translate(0.000000, 0.381174)">
                            <mask id="mask-3" fill="white">
                                <use xlink:href="#path-2"></use>
                            </mask>
                            <g id="Clip-4"></g>
                            <path d="M20.1713886,7.097726 C20.1713886,5.96016775 19.927959,5.18439888 19.4420317,4.77041938 C18.9557316,4.35662628 18.0815471,4.14972973 16.8198509,4.14972973 L4.86999068,4.14972973 C4.78555452,4.14972973 4.71696179,4.21832246 4.71696179,4.30275862 L4.71696179,11.0610065 C4.71696179,11.2373346 4.85992544,11.3804846 5.03643989,11.3804846 L16.8819199,11.3804846 C18.1231128,11.3804846 18.9814539,11.1892451 19.4575023,10.8062069 C19.9333644,10.4237279 20.1713886,9.67349487 20.1713886,8.55625349 L20.1713886,7.097726 Z M4.71696179,15.5169245 L4.71696179,20.1223299 C4.71696179,20.7445107 4.21258155,21.248891 3.59040075,21.248891 L0.276700839,21.248891 C0.123858341,21.248891 -9.31966449e-05,21.1249394 -9.31966449e-05,20.9722833 L-9.31966449e-05,0.360913327 C-9.31966449e-05,0.208257223 0.123858341,0.084305685 0.276700839,0.084305685 L16.9439888,0.084305685 C18.4539609,0.084305685 19.7160298,0.203783784 20.7300093,0.441248835 C21.7434296,0.679086673 22.5609506,1.0727493 23.1816403,1.62037279 C23.8021435,2.16892824 24.2414725,2.87722274 24.5005592,3.74618826 C24.7589003,4.61515377 24.8884436,5.67032619 24.8884436,6.9117055 L24.8884436,8.74264678 C24.8884436,10.0049021 24.7643057,11.0496365 24.5160298,11.8770363 C24.267754,12.7044362 23.8381174,13.3665051 23.2280522,13.8630568 C22.6178006,14.3596086 21.8054986,14.7061137 20.7920783,14.9025722 C19.7782852,15.0994035 18.4955266,15.19726 16.9439888,15.19726 L5.03643989,15.19726 C4.85992544,15.19726 4.71696179,15.3404101 4.71696179,15.5169245 L4.71696179,15.5169245 Z" id="Fill-3" fill="#FFFFFF" mask="url(#mask-3)"></path>
                        </g>
                        <path d="M95.3015471,21.6300466 C93.7498229,21.6300466 92.4566263,21.5012488 91.4225163,21.2419758 C90.3876608,20.9836347 89.5604473,20.570028 88.9397577,20.0007829 C88.3192544,19.4320969 87.8793663,18.6872693 87.6208388,17.7663001 C87.3619385,16.8460764 87.2329543,15.7135508 87.2329543,14.3683504 L87.2329543,0.927716682 C87.2329543,0.672357875 87.4398509,0.465461323 87.6950233,0.465461323 L90.7850513,0.465461323 C91.4113327,0.465461323 91.919068,0.973196645 91.919068,1.5994781 L91.919068,14.1821435 C91.919068,14.8026468 91.9755452,15.32548 92.0896179,15.7491519 C92.202945,16.1735694 92.4046226,16.5249208 92.6948369,16.8043243 C92.9841193,17.0835415 93.3721901,17.285219 93.8584902,17.4093569 C94.3442311,17.5334949 94.9600746,17.5957502 95.7050885,17.5957502 L107.12,17.5957502 C107.756906,17.5957502 108.273215,18.112246 108.273215,18.7491519 L108.273215,21.1679776 C108.273215,21.42315 108.066505,21.6300466 107.811333,21.6300466 L95.3015471,21.6300466 Z" id="Fill-6" fill="#FFFFFF"></path>
                        <g id="Group-10" transform="translate(142.777260, 0.008388)">
                            <mask id="mask-5" fill="white">
                                <use xlink:href="#path-4"></use>
                            </mask>
                            <g id="Clip-9"></g>
                            <path d="M22.410028,22.1808388 C21.9134762,22.1808388 21.4528984,22.1032992 21.0288537,21.9480336 C20.6048089,21.7927679 20.2064865,21.5398322 19.8346319,21.1877353 L5.18971109,7.39761417 C4.8950233,7.11988816 4.41114632,7.32902144 4.41114632,7.73405405 L4.41114632,20.5972414 C4.41114632,21.214576 3.91049394,21.7152283 3.29297297,21.7152283 L0.396421249,21.7152283 C0.196980429,21.7152283 0.0351910531,21.5536253 0.0351910531,21.3539981 L0.0351910531,2.04029823 C0.0351910531,1.37860205 0.267996272,0.887269338 0.73360671,0.566300093 C1.19903075,0.245703635 1.80424977,0.0852190121 2.54889096,0.0852190121 C3.0866356,0.0852190121 3.53136999,0.158098788 3.88328052,0.302553588 C4.23481827,0.447381174 4.52428705,0.633588071 4.75224604,0.860987884 L19.5170177,15.0952842 C19.8107735,15.3784157 20.3000559,15.1704007 20.3000559,14.7627586 L20.3000559,1.67366263 C20.3000559,1.05353215 20.8027586,0.55082945 21.4228891,0.55082945 L24.3774091,0.55082945 C24.593439,0.55082945 24.7686486,0.726039143 24.7686486,0.942255359 L24.7686486,20.2257596 C24.7686486,20.9292078 24.5513141,21.431165 24.1170177,21.7308854 C23.6821622,22.0304194 23.1131034,22.1808388 22.410028,22.1808388" id="Fill-8" fill="#FFFFFF" mask="url(#mask-5)"></path>
                        </g>
                        <path d="M193.475377,21.5596086 L185.010513,13.6973532 C184.909115,13.6032246 184.752358,13.603411 184.651333,13.6975396 L176.217409,21.5592358 C176.168574,21.6047158 176.104455,21.6300652 176.03754,21.6300652 L170.249282,21.6300652 C170.007717,21.6300652 169.893271,21.3320224 170.072768,21.1704194 L181.508742,10.8725629 C181.625424,10.7674371 181.624865,10.5840261 181.507437,10.4796459 L170.763355,0.926244175 C170.582367,0.765013979 170.696253,0.465479963 170.938565,0.465479963 L176.938006,0.465479963 C177.004734,0.465479963 177.068854,0.49082945 177.117502,0.53612302 L184.93521,7.81254427 C185.034557,7.90499534 185.187586,7.90704567 185.289357,7.8172041 L193.538378,0.531649581 C193.586654,0.488965517 193.648723,0.465479963 193.712842,0.465479963 L199.340801,0.465479963 C199.583486,0.465479963 199.697185,0.765759553 199.515266,0.926616962 L188.742293,10.4511277 C188.625424,10.554576 188.623374,10.7364958 188.738006,10.8423672 L199.914893,21.1728425 C200.090848,21.3357502 199.975657,21.6300652 199.735955,21.6300652 L193.654688,21.6300652 C193.588145,21.6300652 193.524026,21.6049021 193.475377,21.5596086" id="Fill-11" fill="#FFFFFF"></path>
                        <path d="M73.5473144,14.4681081 C73.5435788,16.1301771 72.1931594,17.4746319 70.5310904,17.4707261 C68.8690214,17.4671761 67.5245666,16.1167568 67.5282868,14.4546878 C67.5322088,12.7926188 68.8824418,11.448164 70.5445107,11.4516985 C72.2067661,11.4556198 73.5510345,12.8060391 73.5473144,14.4681081" id="Fill-13" fill="#CCAF74"></path>
                        <path d="M74.2302144,2.07929171 C73.8578006,1.47929171 73.4126934,0.982739981 72.8958248,0.589636533 C72.378397,0.196719478 71.6438211,7.45573159e-05 70.6922833,7.45573159e-05 C69.7196831,7.45573159e-05 68.9748555,0.196719478 68.457987,0.589636533 C67.9407456,0.982739981 67.4960112,1.47929171 67.1235974,2.07929171 L55.1828705,21.0759366 C55.0315191,21.3167568 55.2046785,21.6300839 55.4889282,21.6300839 L59.0274185,21.6300839 C59.7979683,21.6300839 60.5135322,21.233439 60.9213607,20.5793849 C61.5105499,19.6347437 62.2941473,18.3741659 62.3683318,18.2362349 C62.4078472,18.1687605 63.2755079,16.7577633 63.2755079,16.7577633 L65.478863,13.1270084 L70.291165,5.28171482 C70.4322647,5.05151911 70.7664678,5.05151911 70.9075676,5.28171482 L80.3137185,20.5663374 C80.7194967,21.2256104 81.4367381,21.627288 82.2108295,21.6278472 C83.6443802,21.6287791 85.8044921,21.6300839 85.8044921,21.6300839 C86.0885555,21.6300839 86.2617148,21.3175023 86.111109,21.0766822 L74.2302144,2.07929171 Z" id="Fill-15" fill="#FFFFFF"></path>
                        <path d="M128.34696,14.4681081 C128.343038,16.1301771 126.992805,17.4746319 125.33055,17.4707261 C123.668481,17.4671761 122.324212,16.1167568 122.327933,14.4546878 C122.331855,12.7926188 123.682274,11.448164 125.344343,11.4516985 C127.006412,11.4556198 128.35068,12.8060391 128.34696,14.4681081" id="Fill-17" fill="#CCAF74"></path>
                        <path d="M140.910662,21.0766822 L129.029953,2.07929171 C128.65754,1.47929171 128.212246,0.982739981 127.695564,0.589636533 C127.17795,0.196719478 126.44356,7.45573159e-05 125.492022,7.45573159e-05 C124.519422,7.45573159e-05 123.774408,0.196719478 123.25754,0.589636533 C122.740298,0.982739981 122.29575,1.47929171 121.923336,2.07929171 L109.982423,21.0759366 C109.831072,21.3167568 110.004231,21.6300839 110.288667,21.6300839 L113.826971,21.6300839 C114.597521,21.6300839 115.313271,21.233439 115.720913,20.5793849 C116.310289,19.6347437 117.093886,18.3741659 117.167884,18.2362349 C117.2074,18.1687605 118.075247,16.7577633 118.075247,16.7577633 L120.278602,13.1270084 L125.090718,5.28171482 C125.232004,5.05151911 125.566207,5.05151911 125.707307,5.28171482 L135.113271,20.5663374 C135.519049,21.2256104 136.236477,21.627288 137.010568,21.6278472 C138.444119,21.6287791 140.604045,21.6300839 140.604045,21.6300839 C140.888295,21.6300839 141.061454,21.3175023 140.910662,21.0766822" id="Fill-19" fill="#FFFFFF"></path>
                    </g>
                </g>
            </g>
        </g>
    </g>
</svg>