<?xml version="1.0" encoding="UTF-8"?>
<svg width="50px" height="62px" viewBox="0 0 50 62" version="1.1" xmlns="http://www.w3.org/2000/svg" xmlns:xlink="http://www.w3.org/1999/xlink">
    <!-- Generator: Sketch 58 (84663) - https://sketch.com -->
    <title>phalanx-icon</title>
    <desc>Created with Sketch.</desc>
    <defs>
        <filter x="-59.7%" y="-42.0%" width="216.1%" height="184.1%" filterUnits="objectBoundingBox" id="filter-1">
            <feOffset dx="0" dy="0" in="SourceAlpha" result="shadowOffsetOuter1"></feOffset>
            <feGaussianBlur stdDeviation="4.5" in="shadowOffsetOuter1" result="shadowBlurOuter1"></feGaussianBlur>
            <feColorMatrix values="0 0 0 0 0.0666666667   0 0 0 0 0.207843137   0 0 0 0 0.301960784  0 0 0 0.591318837 0" type="matrix" in="shadowBlurOuter1" result="shadowMatrixOuter1"></feColorMatrix>
            <feMerge>
                <feMergeNode in="shadowMatrixOuter1"></feMergeNode>
                <feMergeNode in="SourceGraphic"></feMergeNode>
            </feMerge>
        </filter>
        <linearGradient x1="50%" y1="0%" x2="50%" y2="100%" id="linearGradient-2">
            <stop stop-color="#CCAF74" offset="0%"></stop>
            <stop stop-color="#8F7E59" offset="100%"></stop>
        </linearGradient>
    </defs>
    <g id="Page-1" stroke="none" stroke-width="1" fill="none" fill-rule="evenodd">
        <g id="Planning-Page" transform="translate(-19.000000, -15.000000)">
            <g id="phalanx-icon" filter="url(#filter-1)" transform="translate(29.000000, 24.000000)">
                <path d="M30.1369887,14.6210497 C30.1276672,12.9896356 30.1181387,11.3025675 30.1351244,9.64893336 C30.1355387,9.59847083 30.1338815,9.5486313 30.1299458,9.49941476 C30.1297387,9.49422315 30.1295315,9.48882386 30.1295315,9.48363224 L30.1295315,5.79716821 C30.1295315,5.41589579 29.8621105,5.08757787 29.4896682,5.01094959 C28.8429692,4.87804418 28.6393481,5.01261091 26.8133866,5.43126298 C23.910491,6.09662073 19.854433,4.06835945 19.5495192,3.91281858 C19.530462,3.90305833 19.5128549,3.89080612 19.4975264,3.87585426 C19.447605,3.82746838 19.3664051,3.71304512 19.4268908,3.513064 C19.4270979,3.51264867 19.4270979,3.51264867 19.4270979,3.512441 C19.537712,3.10604116 19.6213976,2.80658864 19.6537118,2.69195771 C19.6673833,2.64274117 19.6651047,2.58999434 19.6441833,2.5436851 C19.3251838,1.82911082 15.8847533,0.0612610912 15.0760689,0 L15.0760689,0 C15.0754474,0 15.0746189,0 15.0739974,0 C15.073376,0 15.0725474,0 15.071926,0 L15.071926,0 C14.2630344,0.0612610912 10.8228111,1.82911082 10.5038116,2.5436851 C10.4828902,2.58999434 10.4806116,2.64274117 10.494283,2.69195771 C10.5265973,2.80658864 10.6102828,3.10604116 10.7211041,3.512441 C10.7211041,3.51264867 10.7211041,3.51264867 10.7213112,3.513064 C10.7815897,3.71304512 10.7003898,3.82746838 10.6504685,3.87585426 C10.6351399,3.89080612 10.6173257,3.90305833 10.5982686,3.91281858 C10.2935619,4.06835945 6.23750382,6.09662073 3.33460826,5.43126298 C1.50864677,5.01261091 1.3052328,4.87804418 0.658533788,5.01094959 C0.286091501,5.08757787 0.0186704819,5.41589579 0.0186704819,5.79716821 L0.0186704819,9.48363224 C0.0186704819,9.48882386 0.0182561968,9.49422315 0.0178419118,9.49941476 C0.014113346,9.5486313 0.0124562057,9.59847083 0.0130776333,9.64893336 C0.0298561791,11.3025675 0.0205347648,12.9896356 0.0110062079,14.6210497 C-0.00411519749,17.3223523 -0.0198580305,20.115858 0.0830918119,22.8709458 C0.0853703798,22.9326222 0.0911703709,22.9951293 0.0998703576,23.0563904 C0.606333868,26.5488956 1.90056046,29.9911459 3.94609304,33.2865773 C4.90247015,34.8276572 6.028497,36.3398716 7.29248077,37.7816877 C8.51503605,39.1761563 9.88196967,40.5226543 11.3557888,41.7827638 L11.3624174,41.7883708 L11.369046,41.7941854 C12.2697017,42.540117 13.2275288,43.1467057 14.1540774,43.7331508 C14.4297841,43.9075892 14.7477479,44 15.0735831,44 L15.0739974,44 L15.0744117,44 C15.4002469,44 15.7184179,43.9075892 15.9939175,43.7331508 C16.920466,43.1467057 17.8785003,42.540117 18.7787418,41.7941854 L18.7857846,41.7883708 L18.7924132,41.7827638 C20.2660252,40.5226543 21.633166,39.1761563 22.8557212,37.7816877 C24.1194979,36.3398716 25.2457319,34.8276572 26.202109,33.2865773 C28.2476415,29.9911459 29.541661,26.5488956 30.0481245,23.0563904 C30.0570316,22.9951293 30.0626245,22.9326222 30.0651102,22.8709458 C30.16806,20.115858 30.1523172,17.3223523 30.1369887,14.6210497" id="Fill-1" fill="#FFFFFF"></path>
                <path d="M30.1369887,14.6210497 C30.1276672,12.9896356 30.1181387,11.3025675 30.1351244,9.64893336 C30.1355387,9.59847083 30.1338815,9.5486313 30.1299458,9.49941476 C30.1297387,9.49422315 30.1295315,9.48882386 30.1295315,9.48363224 L30.1295315,5.79716821 C30.1295315,5.41589579 29.8621105,5.08757787 29.4896682,5.01094959 C28.8429692,4.87804418 28.6393481,5.01261091 26.8133866,5.43126298 C23.910491,6.09662073 19.854433,4.06835945 19.5495192,3.91281858 C19.530462,3.90305833 19.5128549,3.89080612 19.4975264,3.87585426 C19.447605,3.82746838 19.3664051,3.71304512 19.4268908,3.513064 C19.4270979,3.51264867 19.4270979,3.51264867 19.4270979,3.512441 C19.537712,3.10604116 19.6213976,2.80658864 19.6537118,2.69195771 C19.6673833,2.64274117 19.6651047,2.58999434 19.6441833,2.5436851 C19.3251838,1.82911082 15.8847533,0.0612610912 15.0760689,0 L15.0760689,0 C15.0754474,0 15.0746189,0 15.0739974,0 C15.073376,0 15.0725474,0 15.071926,0 L15.071926,0 C14.2630344,0.0612610912 10.8228111,1.82911082 10.5038116,2.5436851 C10.4828902,2.58999434 10.4806116,2.64274117 10.494283,2.69195771 C10.5265973,2.80658864 10.6102828,3.10604116 10.7211041,3.512441 C10.7211041,3.51264867 10.7211041,3.51264867 10.7213112,3.513064 C10.7815897,3.71304512 10.7003898,3.82746838 10.6504685,3.87585426 C10.6351399,3.89080612 10.6173257,3.90305833 10.5982686,3.91281858 C10.2935619,4.06835945 6.23750382,6.09662073 3.33460826,5.43126298 C1.50864677,5.01261091 1.3052328,4.87804418 0.658533788,5.01094959 C0.286091501,5.08757787 0.0186704819,5.41589579 0.0186704819,5.79716821 L0.0186704819,9.48363224 C0.0186704819,9.48882386 0.0182561968,9.49422315 0.0178419118,9.49941476 C0.014113346,9.5486313 0.0124562057,9.59847083 0.0130776333,9.64893336 C0.0298561791,11.3025675 0.0205347648,12.9896356 0.0110062079,14.6210497 C-0.00411519749,17.3223523 -0.0198580305,20.115858 0.0830918119,22.8709458 C0.0853703798,22.9326222 0.0911703709,22.9951293 0.0998703576,23.0563904 C0.606333868,26.5488956 1.90056046,29.9911459 3.94609304,33.2865773 C4.90247015,34.8276572 6.028497,36.3398716 7.29248077,37.7816877 C8.51503605,39.1761563 9.88196967,40.5226543 11.3557888,41.7827638 L11.3624174,41.7883708 L11.369046,41.7941854 C12.2697017,42.540117 13.2275288,43.1467057 14.1540774,43.7331508 C14.4297841,43.9075892 14.7477479,44 15.0735831,44 L15.0739974,44 L15.0744117,44 C15.4002469,44 15.7184179,43.9075892 15.9939175,43.7331508 C16.920466,43.1467057 17.8785003,42.540117 18.7787418,41.7941854 L18.7857846,41.7883708 L18.7924132,41.7827638 C20.2660252,40.5226543 21.633166,39.1761563 22.8557212,37.7816877 C24.1194979,36.3398716 25.2457319,34.8276572 26.202109,33.2865773 C28.2476415,29.9911459 29.541661,26.5488956 30.0481245,23.0563904 C30.0570316,22.9951293 30.0626245,22.9326222 30.0651102,22.8709458 C30.16806,20.115858 30.1523172,17.3223523 30.1369887,14.6210497 Z" id="Stroke-3" stroke="#FFFFFF"></path>
                <path d="M29.3203793,9.40870205 C29.3230542,9.13758745 29.1434247,8.89927232 28.8839598,8.82869119 C25.8545373,8.00662855 22.7568022,7.37160592 19.6936349,6.64690373 L19.6905485,6.64607337 L19.1829356,6.53252078 C19.0623595,6.50345796 18.9415777,6.57943647 18.9146229,6.70150032 C18.8144172,7.15446514 18.7364337,7.55283337 18.6991909,7.83744142 C18.5493968,8.98168618 18.0697674,12.3637681 18.0358168,12.603744 C18.0345822,12.6126704 18.0339649,12.6215969 18.0339649,12.6307309 C18.0238826,13.2688674 17.3201793,13.7841097 16.4533072,13.7841097 L14.6598925,13.7841097 C13.794255,13.7841097 13.0913747,13.2705281 13.0794405,12.6336372 C13.0792348,12.6226348 13.078206,12.6116325 13.0765599,12.6008377 C13.0308809,12.3288927 12.4282063,8.73008519 12.2273833,7.51567448 C12.1913751,7.29770332 12.1280007,7.01018899 12.0471365,6.68177912 C12.0456962,6.67638174 12.0442558,6.67098436 12.042404,6.66537938 C12.0070131,6.55743177 11.8911695,6.49826817 11.7814988,6.52483989 C11.6327334,6.56075323 11.483968,6.59625139 11.3352027,6.63133437 L11.331499,6.63237232 C8.24816711,7.36288708 5.1290328,8.00102358 2.07903425,8.82869119 C1.81956935,8.89927232 1.63993981,9.13758745 1.64282046,9.40870205 C1.68747065,13.8030005 1.5481703,18.2049798 1.71154471,22.5947113 C1.71236776,22.6165084 1.71401385,22.6383055 1.71730603,22.659895 C2.19199716,25.9539582 3.38417766,29.0946111 5.10927972,32.0042146 C7.01236523,35.2131652 9.56380435,38.1406216 12.5162721,40.68175 C12.8695641,40.9765301 13.2372594,41.2511737 13.6142139,41.5143998 C13.7864361,41.6350105 14.014008,41.4710132 13.9559833,41.267781 C13.9053661,41.0904978 13.8568064,40.9132146 13.8096871,40.7351011 C12.6839675,36.4861167 10.5183306,30.5801364 9.40289908,26.3263774 C9.16647944,25.553514 10.487878,24.6832901 10.0216231,23.9897267 C10.0033103,23.9619094 9.98232267,23.9363756 9.95927741,23.9125026 C8.53273488,22.425109 6.59405268,21.3408582 5.07923858,19.9477111 C5.05248962,19.9230077 5.02779828,19.8962284 5.00619335,19.8667504 C4.34528831,18.9709928 4.18006205,17.7140258 3.88335438,16.6914297 C3.75660547,16.2824743 3.82306634,15.7622498 4.2652472,15.7622498 C4.36565867,15.7622498 4.48561747,15.7892367 4.62718118,15.8504762 C7.54055428,17.1311086 10.5695652,16.0815256 13.363391,17.560408 C13.5763539,17.6731302 13.698576,17.9058404 13.674502,18.1472694 C13.5068066,19.8258549 13.2164775,23.7482977 13.2374652,25.4283363 C13.2386997,25.5117881 13.2578355,25.5937868 13.2924034,25.6693501 C13.7282057,26.6213651 14.372444,27.5148392 15.004954,28.3921212 C15.1224437,28.5552882 15.3018675,28.6370793 15.481497,28.6370793 C15.6609208,28.6370793 15.8403446,28.5552882 15.9582458,28.3921212 C16.59055,27.5148392 17.2347884,26.6213651 17.6703849,25.6693501 C17.7049527,25.5937868 17.7242943,25.5117881 17.7253231,25.4283363 C17.7463107,23.7482977 17.4561874,19.8258549 17.2882863,18.1472694 C17.2642122,17.9058404 17.3864344,17.6731302 17.599603,17.560408 C20.3934288,16.0815256 23.4224397,17.1311086 26.3358128,15.8504762 C26.4773765,15.7892367 26.5973353,15.7622498 26.6977468,15.7622498 C27.1399277,15.7622498 27.2063885,16.2824743 27.0794339,16.6914297 C26.7827262,17.7140258 26.6177057,18.9709928 25.9565949,19.8667504 C25.93499,19.8962284 25.9102986,19.9230077 25.8835497,19.9477111 C24.3689413,21.3408582 22.4300534,22.425109 21.0037166,23.9125026 C20.9808771,23.9363756 20.9596837,23.9619094 20.9411652,23.9897267 C20.475116,24.6832901 21.7965146,25.553514 21.5600949,26.3263774 C20.4444576,30.5801364 18.2790265,36.4861167 17.1533069,40.7351011 C17.1061876,40.9132146 17.0574222,41.0907054 17.0070107,41.267781 C16.948986,41.4710132 17.1763522,41.6350105 17.3487801,41.5146074 C17.7257346,41.2511737 18.0934299,40.9765301 18.4469277,40.68175 C24.0759374,35.8369779 28.2473346,29.5870183 29.2454822,22.659895 C29.2487744,22.6383055 29.2506263,22.6165084 29.2516551,22.5947113 C29.4146179,18.2049798 29.2755234,13.8030005 29.3203793,9.40870205" id="Fill-5" fill="url(#linearGradient-2)"></path>
            </g>
        </g>
    </g>
</svg>