<?xml version="1.0" encoding="UTF-8"?>
<svg width="263px" height="72px" viewBox="0 0 263 72" version="1.1" xmlns="http://www.w3.org/2000/svg" xmlns:xlink="http://www.w3.org/1999/xlink">
    <!-- Generator: Sketch 58 (84663) - https://sketch.com -->
    <title>Logo</title>
    <desc>Created with Sketch.</desc>
    <defs>
        <filter x="-7.6%" y="-42.0%" width="114.7%" height="184.1%" filterUnits="objectBoundingBox" id="filter-1">
            <feOffset dx="0" dy="0" in="SourceAlpha" result="shadowOffsetOuter1"></feOffset>
            <feGaussianBlur stdDeviation="4.5" in="shadowOffsetOuter1" result="shadowBlurOuter1"></feGaussianBlur>
            <feColorMatrix values="0 0 0 0 0.0666666667   0 0 0 0 0.207843137   0 0 0 0 0.301960784  0 0 0 0.591318837 0" type="matrix" in="shadowBlurOuter1" result="shadowMatrixOuter1"></feColorMatrix>
            <feMerge>
                <feMergeNode in="shadowMatrixOuter1"></feMergeNode>
                <feMergeNode in="SourceGraphic"></feMergeNode>
            </feMerge>
        </filter>
        <polygon id="path-2" points="0 0.084305685 24.8884436 0.084305685 24.8884436 21.248891 0 21.248891"></polygon>
        <polygon id="path-4" points="0.0351910531 0.0852190121 24.7686486 0.0852190121 24.7686486 22.1808015 0.0351910531 22.1808015"></polygon>
        <linearGradient x1="50%" y1="0%" x2="50%" y2="100%" id="linearGradient-6">
            <stop stop-color="#CCAF74" offset="0%"></stop>
            <stop stop-color="#8F7E59" offset="100%"></stop>
        </linearGradient>
    </defs>
    <g id="Page-1" stroke="none" stroke-width="1" fill="none" fill-rule="evenodd">
        <g id="Planning-Page" transform="translate(-17.000000, -22.000000)">
            <g id="Sidemenu">
                <g id="Logo" transform="translate(27.000000, 32.000000)">
                    <g id="powered-by-r3s" transform="translate(122.000000, 45.000000)" fill="#E1E5EB">
                        <text id="Powered-by" font-family="OpenSans-Italic, Open Sans" font-size="8.36" font-style="italic" font-weight="normal">
                            <tspan x="0" y="9">Powered by</tspan>
                        </text>
                        <g id="Group-23" transform="translate(48.000000, 0.000000)">
                            <path d="M4.67517173,4.69109425 C4.6726258,4.63125 4.66498802,4.58542332 4.6560623,4.54846246 C4.64713658,4.51407748 4.63440695,4.48604233 4.6229353,4.46441693 C4.61149361,4.44276158 4.58600439,4.41727236 4.55036142,4.38926717 C4.51214257,4.36126198 4.44720647,4.32942292 4.3516893,4.29375 C4.25617212,4.25936502 4.14663738,4.23007188 4.02691893,4.20461262 C3.90848842,4.1791234 3.7964377,4.16133187 3.69199481,4.15240615 C3.58755192,4.14348043 3.49458067,4.13713059 3.41436901,4.13713059 C3.22842652,4.13713059 3.05012181,4.16004393 2.87436302,4.20335463 C2.69734625,4.24792332 2.51907149,4.32942292 2.33312899,4.45039936 C2.14847444,4.57266374 1.95489417,4.74204273 1.75113019,4.95982428 C1.5486242,5.17757588 1.3257508,5.46286941 1.08760184,5.81819089 L1.08760184,4.47585863 C1.08760184,4.44021565 1.07867612,4.40583067 1.06340056,4.37399161 C1.04683706,4.3434405 1.02011981,4.31669329 0.981900958,4.29375 C0.942424121,4.27338259 0.887641773,4.25681909 0.817613818,4.24792332 C0.745009984,4.2389976 0.655872604,4.23261781 0.548883786,4.23261781 C0.438091054,4.23261781 0.350211661,4.2389976 0.282729633,4.24792332 C0.215217652,4.25681909 0.159207268,4.27338259 0.114608626,4.29375 C0.0700399361,4.31669329 0.0382008786,4.3434405 0.0229253195,4.37399161 C0.00636182109,4.40583067 1.19808307e-05,4.44021565 1.19808307e-05,4.47585863 L1.19808307e-05,12.9678415 C1.19808307e-05,13.0047724 0.00636182109,13.0391573 0.0229253195,13.0709964 C0.0382008786,13.1015775 0.0700399361,13.1257488 0.114608626,13.1448582 C0.159207268,13.1626797 0.219051518,13.1792432 0.292913339,13.1932308 C0.36677516,13.2034445 0.457200479,13.2110823 0.567993211,13.2110823 C0.682619808,13.2110823 0.776849042,13.2034445 0.851998802,13.1932308 C0.924602636,13.1792432 0.983158946,13.1626797 1.02521166,13.1448582 C1.06594649,13.1257488 1.09652756,13.1015775 1.11563698,13.0709964 C1.13471645,13.0391573 1.1461881,13.0047724 1.1461881,12.9678415 L1.1461881,7.22542931 C1.37795727,6.84719449 1.5919349,6.52754593 1.78548522,6.26648363 C1.98035343,6.00667931 2.16375,5.79653554 2.33950879,5.63862819 C2.51523762,5.48069089 2.68335863,5.36735224 2.84252396,5.2947484 C3.00171925,5.22343251 3.1647484,5.18778954 3.33158147,5.18778954 C3.47421326,5.18778954 3.60411542,5.2030651 3.72,5.2298123 C3.83588458,5.25781749 3.94416134,5.28836861 4.04222444,5.31894968 C4.14028754,5.35078874 4.22559105,5.38008187 4.30074081,5.40682907 C4.37460264,5.4361222 4.43956869,5.44885184 4.49432109,5.44885184 C4.52996406,5.44885184 4.56054513,5.43866813 4.58220048,5.41572484 C4.60385583,5.39538738 4.6229353,5.36351837 4.63824081,5.32407149 C4.65222843,5.28327676 4.66498802,5.2298123 4.67007987,5.16358826 C4.67642971,5.0986222 4.68026358,5.0171226 4.68026358,4.92160543 C4.68026358,4.82866414 4.67771765,4.75096845 4.67517173,4.69109425" id="Fill-1"></path>
                            <path d="M8.21432708,4.47587061 C8.21432708,4.44022764 8.20285543,4.4058127 8.18374601,4.37400359 C8.16466653,4.34342252 8.13408546,4.31670527 8.09335064,4.29376198 C8.05132788,4.27336462 7.99274161,4.25683107 7.92013778,4.2479353 C7.84498802,4.23900958 7.75075879,4.23262979 7.63613219,4.23262979 C7.52533946,4.23262979 7.43494409,4.23900958 7.36105232,4.2479353 C7.2871905,4.25683107 7.22734625,4.27336462 7.18277756,4.29376198 C7.13817891,4.31670527 7.10633986,4.34342252 7.0910643,4.37400359 C7.0745008,4.4058127 7.06815096,4.44022764 7.06815096,4.47587061 L7.06815096,12.9678534 C7.06815096,13.0047843 7.0745008,13.0391394 7.0910643,13.0710084 C7.10633986,13.1015595 7.13817891,13.1257608 7.18277756,13.1448702 C7.22734625,13.1626617 7.2871905,13.1792252 7.36105232,13.1932428 C7.43494409,13.2034565 7.52533946,13.2110942 7.63613219,13.2110942 C7.75075879,13.2110942 7.84498802,13.2034565 7.92013778,13.1932428 C7.99274161,13.1792252 8.05132788,13.1626617 8.09335064,13.1448702 C8.13408546,13.1257608 8.16466653,13.1015595 8.18374601,13.0710084 C8.20285543,13.0391394 8.21432708,13.0047843 8.21432708,12.9678534 L8.21432708,4.47587061 Z M8.15702875,1.04495008 C8.05513179,0.941795128 7.87047724,0.889588658 7.6017472,0.889588658 C7.32540935,0.889588658 7.13563299,0.943083067 7.03122005,1.04878395 C6.92677716,1.15703075 6.87711661,1.35953674 6.87711661,1.65881789 C6.87711661,1.95935703 6.92551917,2.16057508 7.02738618,2.26375998 C7.12928315,2.36688498 7.3139377,2.41783347 7.58392572,2.41783347 C7.85900559,2.41783347 8.04749401,2.365627 8.1519369,2.25863818 C8.25634984,2.15164936 8.30984425,1.94917332 8.30984425,1.64860423 C8.30984425,1.34932308 8.25889577,1.14810503 8.15702875,1.04495008 L8.15702875,1.04495008 Z" id="Fill-3"></path>
                            <path d="M16.6222314,9.78908746 C16.4961631,9.53692093 16.3293301,9.32042732 16.1230202,9.13828874 C15.9166803,8.9574381 15.6798193,8.80336462 15.417469,8.67600839 C15.1538608,8.54739417 14.8851308,8.43022165 14.6138548,8.32326278 C14.3400629,8.21753195 14.0713329,8.11183107 13.8089826,8.0048722 C13.5440865,7.89914137 13.3084834,7.776877 13.1034615,7.63936701 C12.8958636,7.50308506 12.7303185,7.3413139 12.6042202,7.15285543 C12.4794099,6.965625 12.4170198,6.73385583 12.4170198,6.45877596 C12.4170198,6.26264976 12.4526627,6.08182907 12.5252666,5.91496605 C12.5978704,5.74942093 12.7073752,5.60421326 12.8538409,5.48069089 C13.0003065,5.35842652 13.1849611,5.2629393 13.4103804,5.19416933 C13.6345118,5.12665735 13.8955741,5.09224241 14.1935972,5.09224241 C14.4928784,5.09224241 14.7552286,5.12791534 14.9831939,5.19797324 C15.2098712,5.26803115 15.4072853,5.34440895 15.5715725,5.4259385 C15.7358596,5.50998403 15.8695956,5.58642173 15.9714627,5.65641973 C16.0733297,5.72647764 16.1484794,5.76089257 16.1994279,5.76089257 C16.2376168,5.76089257 16.2694559,5.75067891 16.3000369,5.72902356 C16.3280421,5.7086861 16.3522434,5.67555911 16.3713528,5.6322484 C16.3891743,5.59019569 16.4044499,5.54053514 16.4133756,5.48194888 C16.4223013,5.42339257 16.4286512,5.35842652 16.4286512,5.28327676 C16.4286512,5.21073283 16.4235593,5.14705471 16.4172095,5.09478834 C16.4120877,5.04386981 16.4031919,4.99930112 16.3942662,4.96237021 C16.3853704,4.92669728 16.3688069,4.89105431 16.3471516,4.85663938 C16.3254962,4.82354233 16.2821855,4.77900359 16.2159914,4.72547923 C16.1510254,4.67198482 16.0529623,4.60830671 15.928152,4.53699081 C15.8020837,4.46696286 15.6530721,4.40073882 15.4798592,4.33960663 C15.3066763,4.27976238 15.114354,4.23132987 14.9042402,4.19442891 C14.6940964,4.15624002 14.4814067,4.13713059 14.270005,4.13713059 C13.7656719,4.13713059 13.3301388,4.20590056 12.9620877,4.3434405 C12.5952945,4.48095048 12.2934974,4.66180112 12.0578644,4.88596246 C11.8222614,5.11135184 11.6477905,5.36735224 11.5344519,5.65009984 C11.4211132,5.93407548 11.3663309,6.22317292 11.3663309,6.51610423 C11.3663309,6.88415535 11.4274631,7.2 11.5509854,7.46232029 C11.6745377,7.72467053 11.8375369,7.95008986 12.0387849,8.13732029 C12.2387151,8.32452077 12.4692262,8.48242812 12.7251967,8.6148762 C12.9824551,8.74606629 13.2448053,8.86704273 13.5147933,8.97528954 L14.30439,9.29368011 C14.5603904,9.39809305 14.7896136,9.51526558 14.9908317,9.65025958 C15.1907618,9.78399561 15.3537909,9.94064497 15.4773133,10.1214956 C15.6008656,10.3036042 15.6645437,10.5251897 15.6645437,10.7875399 C15.6645437,11.0524361 15.6161412,11.2854932 15.520624,11.4841653 C15.4251068,11.6841254 15.2913708,11.8471246 15.1181879,11.9719349 C14.944975,12.0992911 14.7399531,12.1947784 14.505608,12.2571985 C14.270005,12.3195887 14.0114886,12.3514577 13.728741,12.3514577 C13.3759954,12.3514577 13.0652426,12.306889 12.7965126,12.2177216 C12.5278125,12.1272963 12.2960433,12.0292332 12.1011751,11.9209864 C11.9075948,11.8152556 11.7445657,11.7172224 11.6159515,11.6280551 C11.4860493,11.5376597 11.3879862,11.4918031 11.3192163,11.4918031 C11.2822853,11.4918031 11.2479004,11.5032448 11.2173193,11.5261881 C11.1867682,11.5491314 11.1613089,11.5822284 11.1434874,11.6280551 C11.125636,11.6726538 11.1091024,11.7274062 11.0976308,11.7923722 C11.0848712,11.8560503 11.0798093,11.9286242 11.0798093,12.0126697 C11.0798093,12.1744409 11.0937969,12.3017971 11.125636,12.3972843 C11.1562171,12.4940895 11.2058776,12.5743011 11.2746476,12.6328874 C11.3434175,12.6952776 11.4504063,12.7653355 11.5968421,12.8430312 C11.7433077,12.9219848 11.9203245,12.9958466 12.1330142,13.0658746 C12.3444159,13.1346745 12.580019,13.1932308 12.8436571,13.2391174 C13.1047194,13.2823982 13.3823452,13.3065994 13.6739886,13.3065994 C14.1401028,13.3065994 14.5667402,13.2467252 14.9526128,13.1295527 C15.3372274,13.0098642 15.6683476,12.8379393 15.9459734,12.6138079 C16.2236292,12.3896466 16.4375769,12.1171126 16.5865885,11.7949181 C16.7356,11.4726937 16.8107198,11.1084764 16.8107198,10.7022065 C16.8107198,10.346885 16.7470417,10.042512 16.6222314,9.78908746" id="Fill-5"></path>
                            <path d="M26.1241204,12.7997384 C26.0935393,12.7487899 26.037529,12.6761861 25.9585753,12.5832149 L22.2551208,8.07872204 L25.631259,4.86938698 C25.7242302,4.77770367 25.7904543,4.70129593 25.8273852,4.64142173 C25.8643161,4.58157748 25.8846835,4.52044529 25.8846835,4.45805511 C25.8846835,4.41474441 25.8706959,4.37907149 25.8464946,4.35106629 C25.8210054,4.32177316 25.7840745,4.29885982 25.7344139,4.2797504 C25.6834655,4.26189896 25.6210753,4.24916933 25.5433796,4.24281949 C25.4657139,4.23772764 25.3752885,4.23263578 25.2708456,4.23263578 C25.1651448,4.23263578 25.0721735,4.23901558 24.9919319,4.24791134 C24.9104323,4.25680711 24.8391164,4.27337061 24.7767262,4.29376797 C24.7143061,4.31668131 24.6570078,4.34471645 24.6047714,4.37907149 C24.5513069,4.41348642 24.5003584,4.45805511 24.4519559,4.5140655 L20.9178804,8.12583666 L20.9178804,0.27446885 C20.9178804,0.237537939 20.9064387,0.203152955 20.8873293,0.171313898 C20.8682198,0.140732827 20.8376388,0.113985623 20.796904,0.0910722843 C20.7548812,0.0707048722 20.6962949,0.0541413738 20.6236911,0.045215655 C20.5485713,0.0363198882 20.4543121,0.0299400958 20.3396855,0.0299400958 C20.2288928,0.0299400958 20.1384974,0.0363198882 20.0646056,0.045215655 C19.9907438,0.0541413738 19.9308996,0.0707048722 19.8863309,0.0910722843 C19.8417322,0.113985623 19.8098932,0.140732827 19.7946176,0.171313898 C19.7780541,0.203152955 19.7717043,0.237537939 19.7717043,0.27446885 L19.7717043,12.9665415 C19.7717043,13.0047903 19.7780541,13.0391454 19.7946176,13.0710144 C19.8098932,13.1015655 19.8417322,13.1257668 19.8863309,13.1448462 C19.9308996,13.1626677 19.9907438,13.1792312 20.0646056,13.1932488 C20.1384974,13.2034625 20.2288928,13.2110703 20.3396855,13.2110703 C20.4543121,13.2110703 20.5485713,13.2034625 20.6236911,13.1932488 C20.6962949,13.1792312 20.7548812,13.1626677 20.796904,13.1448462 C20.8376388,13.1257668 20.8682198,13.1015655 20.8873293,13.0710144 C20.9064387,13.0391454 20.9178804,13.0047903 20.9178804,12.9678295 L20.9178804,8.14365815 L24.8340246,12.9678295 C24.8696975,13.0124281 24.9078864,13.0493291 24.9473632,13.0799101 C24.9855821,13.1104613 25.0352426,13.1346925 25.0925709,13.153772 C25.1498692,13.1728814 25.2186392,13.186899 25.2975929,13.1970827 C25.3752885,13.2047204 25.4746096,13.2110703 25.598132,13.2110703 C25.7127586,13.2110703 25.8070178,13.2034625 25.8795917,13.1932488 C25.9509075,13.1792312 26.0094938,13.1614097 26.0515166,13.1410423 C26.0935393,13.118129 26.1241204,13.0926398 26.1419419,13.0620887 C26.1597634,13.0302196 26.171235,12.9933187 26.171235,12.94875 C26.171235,12.8990595 26.1547015,12.849399 26.1241204,12.7997384" id="Fill-7"></path>
                            <path d="M32.8904383,13.3065845 C34.3753724,13.3065845 35.5852566,12.9703724 36.518743,12.2992362 C37.4522594,11.6280701 37.9196316,10.683112 37.9196316,9.46816593 C37.9196316,7.94372504 37.1491444,6.95036442 35.6107159,6.4842502 C36.1698013,6.31741713 36.6308237,5.99267672 36.9937829,5.50871106 C37.3554543,5.02477536 37.5375929,4.45676418 37.5375929,3.80473742 C37.5375929,2.71966354 37.1122135,1.85111322 36.2640306,1.19905651 C35.4158476,0.548257788 34.2925849,0.220971446 32.8955302,0.220971446 C31.6538369,0.220971446 30.5789766,0.543195887 29.6722075,1.18758486 C28.7641803,1.83326178 28.1707099,2.74895667 27.8905082,3.93844349 L30.9470278,4.42366713 C31.140608,3.46849541 31.6742043,2.9909395 32.5491344,2.9909395 C32.9553744,2.9909395 33.2814028,3.10173223 33.5323113,3.32202975 C33.781902,3.54364517 33.9080002,3.81872504 33.9080002,4.15110323 C33.9080002,4.41602935 33.8073912,4.6719998 33.6074311,4.91652855 C33.407501,5.16102736 32.9566623,5.28329173 32.258749,5.28329173 L30.9470278,5.28329173 L30.9470278,7.95774261 L32.5045657,7.95774261 C32.9477366,7.95774261 33.2597774,7.99973542 33.441886,8.08126498 C33.6239946,8.16405252 33.7933736,8.30668431 33.9538269,8.51170627 C34.1130222,8.7155002 34.1945517,8.95110323 34.1945517,9.21983327 C34.1945517,9.62352736 34.0480861,9.94317592 33.7551847,10.1800369 C33.4622534,10.4181859 33.0852766,10.5366464 32.6191623,10.5366464 C31.5939627,10.5366464 30.973745,9.96357328 30.7559934,8.81736721 L27.4129523,9.22747105 C28.0789966,11.9464607 29.9065226,13.3065845 32.8904383,13.3065845" id="Fill-10"></path>
                            <path d="M45.276877,9.78908746 C45.1508087,9.53692093 44.9839756,9.32042732 44.7776657,9.13828874 C44.5713259,8.9574381 44.3344649,8.80336462 44.0721146,8.67600839 C43.8085064,8.54739417 43.5397764,8.43022165 43.2685004,8.32326278 C42.9947085,8.21753195 42.7259784,8.11183107 42.4636282,8.0048722 C42.198732,7.89914137 41.963129,7.776877 41.758107,7.63936701 C41.5505092,7.50308506 41.3849341,7.3413139 41.2588658,7.15285543 C41.1340555,6.965625 41.0716653,6.73385583 41.0716653,6.45877596 C41.0716653,6.26264976 41.1073083,6.08182907 41.1799121,5.91496605 C41.252486,5.74942093 41.3620208,5.60421326 41.5084864,5.48069089 C41.6549221,5.35842652 41.8396066,5.2629393 42.065026,5.19416933 C42.2891573,5.12665735 42.5502196,5.09224241 42.8482428,5.09224241 C43.147524,5.09224241 43.4098742,5.12791534 43.6378395,5.19797324 C43.8645168,5.26803115 44.0619309,5.34440895 44.2262181,5.4259385 C44.3905052,5.50998403 44.5242113,5.58642173 44.6261082,5.65641973 C44.7279752,5.72647764 44.803125,5.76089257 44.8540735,5.76089257 C44.8922624,5.76089257 44.9241014,5.75067891 44.9546825,5.72902356 C44.9826877,5.7086861 45.006889,5.67555911 45.0259984,5.6322484 C45.0438199,5.59019569 45.0590954,5.54053514 45.0680212,5.48194888 C45.0769469,5.42339257 45.0832967,5.35842652 45.0832967,5.28327676 C45.0832967,5.21073283 45.0782049,5.14705471 45.0718251,5.09478834 C45.0667332,5.04386981 45.0578375,4.99930112 45.0489117,4.96237021 C45.039986,4.92669728 45.0234525,4.89105431 45.0017971,4.85663938 C44.9801418,4.82354233 44.9368311,4.77900359 44.870637,4.72547923 C44.8056709,4.67198482 44.7076078,4.60830671 44.5827975,4.53699081 C44.4567292,4.46696286 44.3077177,4.40073882 44.1345048,4.33960663 C43.9613219,4.27976238 43.7689996,4.23132987 43.5588858,4.19442891 C43.348742,4.15624002 43.1360523,4.13713059 42.9246506,4.13713059 C42.4203175,4.13713059 41.9847843,4.20590056 41.6167332,4.3434405 C41.2499401,4.48095048 40.948113,4.66180112 40.71251,4.88596246 C40.4769069,5.11135184 40.3024361,5.36735224 40.1890974,5.65009984 C40.0757588,5.93407548 40.0209764,6.22317292 40.0209764,6.51610423 C40.0209764,6.88415535 40.0821086,7.2 40.205631,7.46232029 C40.3291833,7.72467053 40.4921825,7.95008986 40.6934006,8.13732029 C40.8933606,8.32452077 41.1238718,8.48242812 41.3798423,8.6148762 C41.6371006,8.74606629 41.8994509,8.86704273 42.1694389,8.97528954 L42.9590355,9.29368011 C43.2150359,9.39809305 43.4442592,9.51526558 43.6454772,9.65025958 C43.8454073,9.78399561 44.0084365,9.94064497 44.1319589,10.1214956 C44.2554812,10.3036042 44.3191593,10.5251897 44.3191593,10.7875399 C44.3191593,11.0524361 44.2707867,11.2854932 44.1752696,11.4841653 C44.0797524,11.6841254 43.9460164,11.8471246 43.7728335,11.9719349 C43.5996206,12.0992911 43.3945986,12.1947784 43.1602536,12.2571985 C42.9246506,12.3195887 42.6661042,12.3514577 42.3833866,12.3514577 C42.030641,12.3514577 41.7198882,12.306889 41.4511581,12.2177216 C41.1824581,12.1272963 40.9506589,12.0292332 40.7558207,11.9209864 C40.5622404,11.8152556 40.3992113,11.7172224 40.270597,11.6280551 C40.1406949,11.5376597 40.0426318,11.4918031 39.9738618,11.4918031 C39.9369309,11.4918031 39.9025459,11.5032448 39.8719649,11.5261881 C39.8414137,11.5491314 39.8159545,11.5822284 39.798133,11.6280551 C39.7802815,11.6726538 39.7637181,11.7274062 39.7522764,11.7923722 C39.7395168,11.8560503 39.7344549,11.9286242 39.7344549,12.0126697 C39.7344549,12.1744409 39.7484425,12.3017971 39.7802815,12.3972843 C39.8108327,12.4940895 39.8605232,12.5743011 39.9292931,12.6328874 C39.9980631,12.6952776 40.1050519,12.7653355 40.2514876,12.8430312 C40.3979533,12.9219848 40.57497,12.9958466 40.7876597,13.0658746 C40.9990615,13.1346745 41.2346645,13.1932308 41.4983027,13.2391174 C41.759365,13.2823982 42.0369908,13.3065994 42.3286342,13.3065994 C42.7947484,13.3065994 43.2213858,13.2467252 43.6072584,13.1295527 C43.991873,13.0098642 44.3229932,12.8379393 44.600619,12.6138079 C44.8782448,12.3896466 45.0922224,12.1171126 45.241234,11.7949181 C45.3902157,11.4726937 45.4653654,11.1084764 45.4653654,10.7022065 C45.4653654,10.346885 45.4016873,10.042512 45.276877,9.78908746" id="Fill-12"></path>
                            <path d="M49.572529,4.47587061 C49.572529,4.44022764 49.5610573,4.4058127 49.5419479,4.37400359 C49.5228684,4.34342252 49.4922873,4.31670527 49.4515226,4.29376198 C49.4095298,4.27336462 49.3509435,4.25683107 49.2783397,4.2479353 C49.2031899,4.23900958 49.1089607,4.23262979 48.9943341,4.23262979 C48.8835413,4.23262979 48.793116,4.23900958 48.7192542,4.2479353 C48.6453924,4.25683107 48.5855182,4.27336462 48.5409794,4.29376198 C48.4963808,4.31670527 48.4645417,4.34342252 48.4492662,4.37400359 C48.4327027,4.4058127 48.4263528,4.44022764 48.4263528,4.47587061 L48.4263528,12.9678534 C48.4263528,13.0047843 48.4327027,13.0391394 48.4492662,13.0710084 C48.4645417,13.1015595 48.4963808,13.1257608 48.5409794,13.1448702 C48.5855182,13.1626617 48.6453924,13.1792252 48.7192542,13.1932428 C48.793116,13.2034565 48.8835413,13.2110942 48.9943341,13.2110942 C49.1089607,13.2110942 49.2031899,13.2034565 49.2783397,13.1932428 C49.3509435,13.1792252 49.4095298,13.1626617 49.4515226,13.1448702 C49.4922873,13.1257608 49.5228684,13.1015595 49.5419479,13.0710084 C49.5610573,13.0391394 49.572529,13.0047843 49.572529,12.9678534 L49.572529,4.47587061 Z M49.5152007,1.04495008 C49.4133337,0.941795128 49.2286791,0.889588658 48.9599491,0.889588658 C48.6836112,0.889588658 48.4938349,0.943083067 48.3894219,1.04878395 C48.284979,1.15703075 48.2353185,1.35953674 48.2353185,1.65881789 C48.2353185,1.95935703 48.283721,2.16057508 48.3855881,2.26375998 C48.4874551,2.36688498 48.6721396,2.41783347 48.9421276,2.41783347 C49.2172075,2.41783347 49.4056959,2.365627 49.5101388,2.25863818 C49.6145517,2.15164936 49.6680461,1.94917332 49.6680461,1.64860423 C49.6680461,1.34932308 49.6170976,1.14810503 49.5152007,1.04495008 L49.5152007,1.04495008 Z" id="Fill-14"></path>
                            <path d="M56.4037979,8.63271565 L59.0285583,4.64651358 C59.0833107,4.56501398 59.1126038,4.49878994 59.1164377,4.44403754 C59.1189836,4.39054313 59.0998742,4.34852037 59.0565635,4.3179393 C59.0120248,4.28613019 58.9445128,4.26447484 58.8528295,4.25171526 C58.7624042,4.24027356 58.6515815,4.23263578 58.5204213,4.23263578 C58.395611,4.23263578 58.295002,4.23901558 58.2236861,4.24791134 C58.1523702,4.25680711 58.0950419,4.27082468 58.0543071,4.28993411 C58.0148303,4.30901358 57.9817033,4.33324481 57.956244,4.35999201 C57.9307548,4.3879972 57.9052955,4.4211242 57.8823822,4.45805511 L55.7326318,7.77818291 L53.4886522,4.45805511 C53.4644808,4.4211242 53.4402796,4.3879972 53.4160783,4.35999201 C53.393135,4.33324481 53.3612959,4.30901358 53.3193031,4.28993411 C53.2772504,4.27082468 53.22124,4.25680711 53.1473482,4.24791134 C53.0747444,4.23901558 52.9767113,4.23263578 52.8531889,4.23263578 C52.7245447,4.23263578 52.61501,4.24027356 52.5271306,4.25171526 C52.4379932,4.26447484 52.3704812,4.28738818 52.3259425,4.32177316 C52.2787979,4.35615815 52.2584305,4.39946885 52.2609764,4.45293331 C52.2648103,4.50771565 52.2915575,4.57139377 52.342476,4.64651358 L54.9761621,8.66961661 L52.1985863,12.7882668 C52.141258,12.8646745 52.1132228,12.9296406 52.1106769,12.981847 C52.1081609,13.0353115 52.1259824,13.0786522 52.1654593,13.1130072 C52.2049361,13.1473922 52.2673263,13.1728814 52.3526597,13.1881569 C52.4379932,13.2021745 52.5436941,13.2110703 52.6710503,13.2110703 C52.7920567,13.2110703 52.8913778,13.2047204 52.9677855,13.1970827 C53.0416474,13.186899 53.1040675,13.1728814 53.153728,13.153772 C53.2021006,13.1346925 53.2403195,13.1104613 53.2670667,13.0799101 C53.2938139,13.0493291 53.3205611,13.014974 53.3447624,12.9767552 L55.6371146,9.43120807 L58.025014,12.9767552 C58.0492153,13.014974 58.0734165,13.0493291 58.1001637,13.0799101 C58.126881,13.1104613 58.1612959,13.1346925 58.2058646,13.153772 C58.2491454,13.1728814 58.3064736,13.186899 58.3815935,13.1970827 C58.4554852,13.2047204 58.5535184,13.2110703 58.6770707,13.2110703 C58.8056849,13.2110703 58.9126737,13.2021745 58.9980072,13.1881569 C59.0833107,13.1728814 59.1469888,13.1473922 59.1902995,13.1130072 C59.2323223,13.0786522 59.2527196,13.0353115 59.2501438,12.981847 C59.2475978,12.9296406 59.2208806,12.8646745 59.17122,12.7882668 L56.4037979,8.63271565 Z" id="Fill-16"></path>
                            <path d="M65.7948852,12.272477 C65.7859595,12.2202706 65.7732298,12.1769898 65.7592123,12.1425749 C65.7439367,12.1082198 65.7235693,12.0839886 65.699368,12.072517 C65.6738788,12.0597873 65.6458736,12.0534375 65.6152925,12.0534375 C65.565632,12.0534375 65.5096216,12.069971 65.4459435,12.1005521 C65.3797194,12.1323912 65.3020238,12.1667762 65.2090525,12.2037071 C65.1173393,12.2406679 65.0129263,12.275023 64.8932079,12.3055741 C64.7734894,12.3361552 64.6397833,12.3514607 64.4920298,12.3514607 C64.0131859,12.3514607 63.6833536,12.1807638 63.502503,11.8407478 C63.3203944,11.5007019 63.231257,11.0065825 63.231257,10.3570717 L63.231257,5.18779253 L65.5337929,5.18779253 C65.6127466,5.18779253 65.6777127,5.14957368 65.7299191,5.06936202 C65.7821556,4.99166633 65.8101607,4.87320587 65.8101607,4.71529852 C65.8101607,4.63379892 65.802523,4.56248303 65.7897933,4.50260883 C65.7783217,4.44276458 65.7592123,4.39181609 65.735011,4.35105132 C65.7108097,4.31031649 65.6815166,4.27973542 65.6484195,4.26065595 C65.6140345,4.24280451 65.5758456,4.23262081 65.5337929,4.23262081 L63.231257,4.23262081 L63.231257,2.18096346 C63.231257,2.14529054 63.2197853,2.11090555 63.2006759,2.07906649 C63.1815665,2.04977336 63.1510154,2.02176817 63.1102506,2.00140076 C63.0682278,1.98100339 63.0096416,1.96446985 62.9370377,1.95554413 C62.8619179,1.94661841 62.7676887,1.94026857 62.6530621,1.94026857 C62.5422694,1.94026857 62.451844,1.94661841 62.3779523,1.95554413 C62.3041204,1.96446985 62.2442462,1.98100339 62.1996775,2.00140076 C62.1551088,2.02176817 62.1232698,2.04977336 62.1079942,2.07906649 C62.0914307,2.11090555 62.0850509,2.14529054 62.0850509,2.18096346 L62.0850509,4.23262081 L60.8331739,4.23262081 C60.7898632,4.23262081 60.7516743,4.24280451 60.7172893,4.26065595 C60.6829044,4.27973542 60.6536112,4.31031649 60.6294099,4.35105132 C60.6052087,4.39181609 60.5860992,4.44276458 60.5746276,4.50260883 C60.561898,4.56248303 60.5568061,4.63379892 60.5568061,4.71529852 C60.5568061,4.87320587 60.5797194,4.99166633 60.6294099,5.06936202 C60.6790705,5.14957368 60.7478405,5.18779253 60.8331739,5.18779253 L62.0850509,5.18779253 L62.0850509,10.5022494 C62.0850509,10.9811232 62.1258157,11.3975469 62.2098612,11.7503225 C62.2939067,12.1018401 62.4289307,12.3934535 62.6161312,12.6227067 C62.8020737,12.8532179 63.0427686,13.0225968 63.3356699,13.1359355 C63.6273133,13.2492742 63.9813468,13.3065725 64.3990885,13.3065725 C64.5251567,13.3065725 64.651225,13.2977067 64.7824151,13.2836891 C64.9123173,13.2683836 65.0358397,13.2454702 65.1555581,13.218723 C65.2739886,13.188142 65.3784315,13.1537869 65.4675689,13.1155381 C65.5567362,13.0748033 65.6255062,13.0315226 65.6738788,12.9844079 C65.7197354,12.9359754 65.7541204,12.8722973 65.7770337,12.7920857 C65.7974311,12.7105861 65.8101607,12.6048852 65.8101607,12.4736951 C65.8101607,12.3934535 65.803781,12.3259714 65.7948852,12.272477" id="Fill-18"></path>
                            <path d="M74.931263,4.64271266 C74.9630721,4.56247105 74.9796356,4.496247 74.9796356,4.4427526 C74.9796356,4.39054613 74.9592682,4.34852336 74.9223373,4.31794229 C74.8841484,4.28613319 74.8255621,4.26447784 74.7465785,4.25171825 C74.6676248,4.24024661 74.5670158,4.23263878 74.4473273,4.23263878 C74.321229,4.23263878 74.2129822,4.23898862 74.1251028,4.24791434 C74.0372234,4.2568101 73.9671655,4.27591953 73.9136711,4.30266673 C73.8602067,4.33070188 73.816896,4.38925819 73.7850569,4.47587959 L71.2061532,11.8547534 L71.1691923,11.8547534 L68.5317322,4.47587959 C68.5138808,4.43256889 68.4934834,4.39563798 68.471858,4.36379892 C68.4514906,4.3332478 68.4171056,4.30775859 68.3699611,4.2899371 C68.3241344,4.27082768 68.2617143,4.2568101 68.1827606,4.24791434 C68.1038069,4.23898862 67.9955302,4.23263878 67.861854,4.23263878 C67.7332099,4.23263878 67.630025,4.23898862 67.5536472,4.24791434 C67.4784974,4.2568101 67.422487,4.27720747 67.3880721,4.30775859 C67.3536871,4.33833966 67.3384115,4.38036242 67.3384115,4.43382688 C67.3384115,4.48735124 67.3524291,4.55609125 67.3855262,4.64271266 L70.435636,12.8913948 C70.4483956,12.9359934 70.4738848,12.9793041 70.5107857,13.0225849 C70.5464287,13.0658956 70.5897694,13.0977346 70.6406879,13.1155561 L69.4397294,16.1389487 C69.4079203,16.2140984 69.3964487,16.2777766 69.4015405,16.3337869 C69.4079203,16.3859934 69.4320917,16.4293341 69.4715984,16.464977 C69.5110753,16.499362 69.5670857,16.5222754 69.6422354,16.5362929 C69.7161272,16.5464766 69.8090685,16.5541444 69.9198912,16.5541444 C70.1350968,16.5541444 70.2930341,16.5299131 70.3910972,16.4840865 C70.4904183,16.4344259 70.5540964,16.3783556 70.5859355,16.3096156 L71.7767103,13.1155561 L74.931263,4.64271266 Z" id="Fill-20"></path>
                        </g>
                    </g>
                    <g filter="url(#filter-1)">
                        <g id="phalanx-text" transform="translate(45.000000, 13.000000)">
                            <path d="M48.0695806,20.5355266 L48.0695806,14.1619944 C48.0695806,13.6246226 47.6339795,13.1890214 47.0966076,13.1890214 L33.5262442,13.1890214 C32.9888723,13.1890214 32.5530848,13.6246226 32.5530848,14.1619944 L32.5530848,20.4842684 C32.5530848,21.1170736 32.0401305,21.630028 31.4073253,21.630028 L28.1709786,21.630028 C27.9860764,21.630028 27.8362162,21.4799814 27.8362162,21.2952656 L27.8362162,0.800205033 C27.8362162,0.615489282 27.9860764,0.465442684 28.1709786,0.465442684 L31.4462815,0.465442684 C32.0576514,0.465442684 32.5530848,0.961062442 32.5530848,1.57243243 L32.5530848,8.11968313 C32.5530848,8.65686859 32.9888723,9.0926561 33.5262442,9.0926561 L47.0966076,9.0926561 C47.6339795,9.0926561 48.0695806,8.65686859 48.0695806,8.11968313 L48.0695806,1.5873439 C48.0695806,0.9677726 48.5719105,0.465442684 49.1914818,0.465442684 L52.420932,0.465442684 C52.6056477,0.465442684 52.7556943,0.615489282 52.7556943,0.800205033 L52.7556943,21.2952656 C52.7556943,21.4799814 52.6056477,21.630028 52.420932,21.630028 L49.164082,21.630028 C48.5596086,21.630028 48.0695806,21.14 48.0695806,20.5355266" id="Fill-1" fill="#FFFFFF"></path>
                            <g id="Group-5" transform="translate(0.000000, 0.381174)">
                                <mask id="mask-3" fill="white">
                                    <use xlink:href="#path-2"></use>
                                </mask>
                                <g id="Clip-4"></g>
                                <path d="M20.1713886,7.097726 C20.1713886,5.96016775 19.927959,5.18439888 19.4420317,4.77041938 C18.9557316,4.35662628 18.0815471,4.14972973 16.8198509,4.14972973 L4.86999068,4.14972973 C4.78555452,4.14972973 4.71696179,4.21832246 4.71696179,4.30275862 L4.71696179,11.0610065 C4.71696179,11.2373346 4.85992544,11.3804846 5.03643989,11.3804846 L16.8819199,11.3804846 C18.1231128,11.3804846 18.9814539,11.1892451 19.4575023,10.8062069 C19.9333644,10.4237279 20.1713886,9.67349487 20.1713886,8.55625349 L20.1713886,7.097726 Z M4.71696179,15.5169245 L4.71696179,20.1223299 C4.71696179,20.7445107 4.21258155,21.248891 3.59040075,21.248891 L0.276700839,21.248891 C0.123858341,21.248891 -9.31966449e-05,21.1249394 -9.31966449e-05,20.9722833 L-9.31966449e-05,0.360913327 C-9.31966449e-05,0.208257223 0.123858341,0.084305685 0.276700839,0.084305685 L16.9439888,0.084305685 C18.4539609,0.084305685 19.7160298,0.203783784 20.7300093,0.441248835 C21.7434296,0.679086673 22.5609506,1.0727493 23.1816403,1.62037279 C23.8021435,2.16892824 24.2414725,2.87722274 24.5005592,3.74618826 C24.7589003,4.61515377 24.8884436,5.67032619 24.8884436,6.9117055 L24.8884436,8.74264678 C24.8884436,10.0049021 24.7643057,11.0496365 24.5160298,11.8770363 C24.267754,12.7044362 23.8381174,13.3665051 23.2280522,13.8630568 C22.6178006,14.3596086 21.8054986,14.7061137 20.7920783,14.9025722 C19.7782852,15.0994035 18.4955266,15.19726 16.9439888,15.19726 L5.03643989,15.19726 C4.85992544,15.19726 4.71696179,15.3404101 4.71696179,15.5169245 L4.71696179,15.5169245 Z" id="Fill-3" fill="#FFFFFF" mask="url(#mask-3)"></path>
                            </g>
                            <path d="M95.3015471,21.6300466 C93.7498229,21.6300466 92.4566263,21.5012488 91.4225163,21.2419758 C90.3876608,20.9836347 89.5604473,20.570028 88.9397577,20.0007829 C88.3192544,19.4320969 87.8793663,18.6872693 87.6208388,17.7663001 C87.3619385,16.8460764 87.2329543,15.7135508 87.2329543,14.3683504 L87.2329543,0.927716682 C87.2329543,0.672357875 87.4398509,0.465461323 87.6950233,0.465461323 L90.7850513,0.465461323 C91.4113327,0.465461323 91.919068,0.973196645 91.919068,1.5994781 L91.919068,14.1821435 C91.919068,14.8026468 91.9755452,15.32548 92.0896179,15.7491519 C92.202945,16.1735694 92.4046226,16.5249208 92.6948369,16.8043243 C92.9841193,17.0835415 93.3721901,17.285219 93.8584902,17.4093569 C94.3442311,17.5334949 94.9600746,17.5957502 95.7050885,17.5957502 L107.12,17.5957502 C107.756906,17.5957502 108.273215,18.112246 108.273215,18.7491519 L108.273215,21.1679776 C108.273215,21.42315 108.066505,21.6300466 107.811333,21.6300466 L95.3015471,21.6300466 Z" id="Fill-6" fill="#FFFFFF"></path>
                            <g id="Group-10" transform="translate(142.777260, 0.008388)">
                                <mask id="mask-5" fill="white">
                                    <use xlink:href="#path-4"></use>
                                </mask>
                                <g id="Clip-9"></g>
                                <path d="M22.410028,22.1808388 C21.9134762,22.1808388 21.4528984,22.1032992 21.0288537,21.9480336 C20.6048089,21.7927679 20.2064865,21.5398322 19.8346319,21.1877353 L5.18971109,7.39761417 C4.8950233,7.11988816 4.41114632,7.32902144 4.41114632,7.73405405 L4.41114632,20.5972414 C4.41114632,21.214576 3.91049394,21.7152283 3.29297297,21.7152283 L0.396421249,21.7152283 C0.196980429,21.7152283 0.0351910531,21.5536253 0.0351910531,21.3539981 L0.0351910531,2.04029823 C0.0351910531,1.37860205 0.267996272,0.887269338 0.73360671,0.566300093 C1.19903075,0.245703635 1.80424977,0.0852190121 2.54889096,0.0852190121 C3.0866356,0.0852190121 3.53136999,0.158098788 3.88328052,0.302553588 C4.23481827,0.447381174 4.52428705,0.633588071 4.75224604,0.860987884 L19.5170177,15.0952842 C19.8107735,15.3784157 20.3000559,15.1704007 20.3000559,14.7627586 L20.3000559,1.67366263 C20.3000559,1.05353215 20.8027586,0.55082945 21.4228891,0.55082945 L24.3774091,0.55082945 C24.593439,0.55082945 24.7686486,0.726039143 24.7686486,0.942255359 L24.7686486,20.2257596 C24.7686486,20.9292078 24.5513141,21.431165 24.1170177,21.7308854 C23.6821622,22.0304194 23.1131034,22.1808388 22.410028,22.1808388" id="Fill-8" fill="#FFFFFF" mask="url(#mask-5)"></path>
                            </g>
                            <path d="M193.475377,21.5596086 L185.010513,13.6973532 C184.909115,13.6032246 184.752358,13.603411 184.651333,13.6975396 L176.217409,21.5592358 C176.168574,21.6047158 176.104455,21.6300652 176.03754,21.6300652 L170.249282,21.6300652 C170.007717,21.6300652 169.893271,21.3320224 170.072768,21.1704194 L181.508742,10.8725629 C181.625424,10.7674371 181.624865,10.5840261 181.507437,10.4796459 L170.763355,0.926244175 C170.582367,0.765013979 170.696253,0.465479963 170.938565,0.465479963 L176.938006,0.465479963 C177.004734,0.465479963 177.068854,0.49082945 177.117502,0.53612302 L184.93521,7.81254427 C185.034557,7.90499534 185.187586,7.90704567 185.289357,7.8172041 L193.538378,0.531649581 C193.586654,0.488965517 193.648723,0.465479963 193.712842,0.465479963 L199.340801,0.465479963 C199.583486,0.465479963 199.697185,0.765759553 199.515266,0.926616962 L188.742293,10.4511277 C188.625424,10.554576 188.623374,10.7364958 188.738006,10.8423672 L199.914893,21.1728425 C200.090848,21.3357502 199.975657,21.6300652 199.735955,21.6300652 L193.654688,21.6300652 C193.588145,21.6300652 193.524026,21.6049021 193.475377,21.5596086" id="Fill-11" fill="#FFFFFF"></path>
                            <path d="M73.5473144,14.4681081 C73.5435788,16.1301771 72.1931594,17.4746319 70.5310904,17.4707261 C68.8690214,17.4671761 67.5245666,16.1167568 67.5282868,14.4546878 C67.5322088,12.7926188 68.8824418,11.448164 70.5445107,11.4516985 C72.2067661,11.4556198 73.5510345,12.8060391 73.5473144,14.4681081" id="Fill-13" fill="#CCAF74"></path>
                            <path d="M74.2302144,2.07929171 C73.8578006,1.47929171 73.4126934,0.982739981 72.8958248,0.589636533 C72.378397,0.196719478 71.6438211,7.45573159e-05 70.6922833,7.45573159e-05 C69.7196831,7.45573159e-05 68.9748555,0.196719478 68.457987,0.589636533 C67.9407456,0.982739981 67.4960112,1.47929171 67.1235974,2.07929171 L55.1828705,21.0759366 C55.0315191,21.3167568 55.2046785,21.6300839 55.4889282,21.6300839 L59.0274185,21.6300839 C59.7979683,21.6300839 60.5135322,21.233439 60.9213607,20.5793849 C61.5105499,19.6347437 62.2941473,18.3741659 62.3683318,18.2362349 C62.4078472,18.1687605 63.2755079,16.7577633 63.2755079,16.7577633 L65.478863,13.1270084 L70.291165,5.28171482 C70.4322647,5.05151911 70.7664678,5.05151911 70.9075676,5.28171482 L80.3137185,20.5663374 C80.7194967,21.2256104 81.4367381,21.627288 82.2108295,21.6278472 C83.6443802,21.6287791 85.8044921,21.6300839 85.8044921,21.6300839 C86.0885555,21.6300839 86.2617148,21.3175023 86.111109,21.0766822 L74.2302144,2.07929171 Z" id="Fill-15" fill="#FFFFFF"></path>
                            <path d="M128.34696,14.4681081 C128.343038,16.1301771 126.992805,17.4746319 125.33055,17.4707261 C123.668481,17.4671761 122.324212,16.1167568 122.327933,14.4546878 C122.331855,12.7926188 123.682274,11.448164 125.344343,11.4516985 C127.006412,11.4556198 128.35068,12.8060391 128.34696,14.4681081" id="Fill-17" fill="#CCAF74"></path>
                            <path d="M140.910662,21.0766822 L129.029953,2.07929171 C128.65754,1.47929171 128.212246,0.982739981 127.695564,0.589636533 C127.17795,0.196719478 126.44356,7.45573159e-05 125.492022,7.45573159e-05 C124.519422,7.45573159e-05 123.774408,0.196719478 123.25754,0.589636533 C122.740298,0.982739981 122.29575,1.47929171 121.923336,2.07929171 L109.982423,21.0759366 C109.831072,21.3167568 110.004231,21.6300839 110.288667,21.6300839 L113.826971,21.6300839 C114.597521,21.6300839 115.313271,21.233439 115.720913,20.5793849 C116.310289,19.6347437 117.093886,18.3741659 117.167884,18.2362349 C117.2074,18.1687605 118.075247,16.7577633 118.075247,16.7577633 L120.278602,13.1270084 L125.090718,5.28171482 C125.232004,5.05151911 125.566207,5.05151911 125.707307,5.28171482 L135.113271,20.5663374 C135.519049,21.2256104 136.236477,21.627288 137.010568,21.6278472 C138.444119,21.6287791 140.604045,21.6300839 140.604045,21.6300839 C140.888295,21.6300839 141.061454,21.3175023 140.910662,21.0766822" id="Fill-19" fill="#FFFFFF"></path>
                        </g>
                        <g id="icon">
                            <path d="M29.7937143,14.4725102 C29.7845306,12.8692449 29.7751429,11.2112857 29.7918776,9.58618367 C29.7922857,9.53659184 29.7906531,9.48761224 29.7867755,9.4392449 C29.7865714,9.43414286 29.7863673,9.42883673 29.7863673,9.42373469 L29.7863673,5.80087755 C29.7863673,5.42618367 29.522898,5.10353061 29.1559592,5.02822449 C28.5188163,4.89761224 28.3182041,5.02985714 26.5192245,5.44128571 C23.6592245,6.09516327 19.663102,4.10189796 19.3626939,3.94904082 C19.3439184,3.93944898 19.3265714,3.92740816 19.3114694,3.91271429 C19.2622857,3.86516327 19.1822857,3.75271429 19.2418776,3.55618367 C19.2420816,3.55577551 19.2420816,3.55577551 19.2420816,3.55557143 C19.3510612,3.15618367 19.4335102,2.86189796 19.4653469,2.7492449 C19.4788163,2.70087755 19.4765714,2.64904082 19.4559592,2.60353061 C19.1416735,1.90128571 15.7520816,0.163938776 14.9553469,0.103734694 L14.9553469,0.103734694 C14.9547347,0.103734694 14.9539184,0.103734694 14.9533061,0.103734694 C14.9526939,0.103734694 14.9518776,0.103734694 14.9512653,0.103734694 L14.9512653,0.103734694 C14.1543265,0.163938776 10.7649388,1.90128571 10.4506531,2.60353061 C10.4300408,2.64904082 10.4277959,2.70087755 10.4412653,2.7492449 C10.473102,2.86189796 10.555551,3.15618367 10.6647347,3.55557143 C10.6647347,3.55577551 10.6647347,3.55577551 10.6649388,3.55618367 C10.7243265,3.75271429 10.6443265,3.86516327 10.5951429,3.91271429 C10.5800408,3.92740816 10.5624898,3.93944898 10.5437143,3.94904082 C10.2435102,4.10189796 6.24738776,6.09516327 3.38738776,5.44128571 C1.58840816,5.02985714 1.388,4.89761224 0.750857143,5.02822449 C0.383918367,5.10353061 0.12044898,5.42618367 0.12044898,5.80087755 L0.12044898,9.42373469 C0.12044898,9.42883673 0.120040816,9.43414286 0.119632653,9.4392449 C0.115959184,9.48761224 0.114326531,9.53659184 0.114938776,9.58618367 C0.131469388,11.2112857 0.122285714,12.8692449 0.112897959,14.4725102 C0.098,17.1272041 0.0824897959,19.8725102 0.183918367,22.5800612 C0.186163265,22.6406735 0.191877551,22.702102 0.20044898,22.7623061 C0.699428571,26.194551 1.97453061,29.5774082 3.98983673,32.8159796 C4.93208163,34.3304694 6.04146939,35.8165918 7.28677551,37.2335306 C8.49126531,38.6039388 9.838,39.9272041 11.2900408,41.1655714 L11.2965714,41.1710816 L11.303102,41.1767959 C12.190449,41.9098571 13.1341224,42.5059796 14.0469796,43.0823061 C14.3186122,43.2537347 14.6318776,43.344551 14.952898,43.344551 L14.9533061,43.344551 L14.9537143,43.344551 C15.2747347,43.344551 15.5882041,43.2537347 15.8596327,43.0823061 C16.7724898,42.5059796 17.7163673,41.9098571 18.6033061,41.1767959 L18.6102449,41.1710816 L18.6167755,41.1655714 C20.0686122,39.9272041 21.415551,38.6039388 22.6200408,37.2335306 C23.8651429,35.8165918 24.9747347,34.3304694 25.9169796,32.8159796 C27.9322857,29.5774082 29.2071837,26.194551 29.7061633,22.7623061 C29.7149388,22.702102 29.720449,22.6406735 29.722898,22.5800612 C29.8243265,19.8725102 29.8088163,17.1272041 29.7937143,14.4725102" id="Fill-1" stroke="#FFFFFF" stroke-width="2" fill="#FFFFFF"></path>
                            <path d="M29.7937143,14.4725102 C29.7845306,12.8692449 29.7751429,11.2112857 29.7918776,9.58618367 C29.7922857,9.53659184 29.7906531,9.48761224 29.7867755,9.4392449 C29.7865714,9.43414286 29.7863673,9.42883673 29.7863673,9.42373469 L29.7863673,5.80087755 C29.7863673,5.42618367 29.522898,5.10353061 29.1559592,5.02822449 C28.5188163,4.89761224 28.3182041,5.02985714 26.5192245,5.44128571 C23.6592245,6.09516327 19.663102,4.10189796 19.3626939,3.94904082 C19.3439184,3.93944898 19.3265714,3.92740816 19.3114694,3.91271429 C19.2622857,3.86516327 19.1822857,3.75271429 19.2418776,3.55618367 C19.2420816,3.55577551 19.2420816,3.55577551 19.2420816,3.55557143 C19.3510612,3.15618367 19.4335102,2.86189796 19.4653469,2.7492449 C19.4788163,2.70087755 19.4765714,2.64904082 19.4559592,2.60353061 C19.1416735,1.90128571 15.7520816,0.163938776 14.9553469,0.103734694 L14.9553469,0.103734694 C14.9547347,0.103734694 14.9539184,0.103734694 14.9533061,0.103734694 C14.9526939,0.103734694 14.9518776,0.103734694 14.9512653,0.103734694 L14.9512653,0.103734694 C14.1543265,0.163938776 10.7649388,1.90128571 10.4506531,2.60353061 C10.4300408,2.64904082 10.4277959,2.70087755 10.4412653,2.7492449 C10.473102,2.86189796 10.555551,3.15618367 10.6647347,3.55557143 C10.6647347,3.55577551 10.6647347,3.55577551 10.6649388,3.55618367 C10.7243265,3.75271429 10.6443265,3.86516327 10.5951429,3.91271429 C10.5800408,3.92740816 10.5624898,3.93944898 10.5437143,3.94904082 C10.2435102,4.10189796 6.24738776,6.09516327 3.38738776,5.44128571 C1.58840816,5.02985714 1.388,4.89761224 0.750857143,5.02822449 C0.383918367,5.10353061 0.12044898,5.42618367 0.12044898,5.80087755 L0.12044898,9.42373469 C0.12044898,9.42883673 0.120040816,9.43414286 0.119632653,9.4392449 C0.115959184,9.48761224 0.114326531,9.53659184 0.114938776,9.58618367 C0.131469388,11.2112857 0.122285714,12.8692449 0.112897959,14.4725102 C0.098,17.1272041 0.0824897959,19.8725102 0.183918367,22.5800612 C0.186163265,22.6406735 0.191877551,22.702102 0.20044898,22.7623061 C0.699428571,26.194551 1.97453061,29.5774082 3.98983673,32.8159796 C4.93208163,34.3304694 6.04146939,35.8165918 7.28677551,37.2335306 C8.49126531,38.6039388 9.838,39.9272041 11.2900408,41.1655714 L11.2965714,41.1710816 L11.303102,41.1767959 C12.190449,41.9098571 13.1341224,42.5059796 14.0469796,43.0823061 C14.3186122,43.2537347 14.6318776,43.344551 14.952898,43.344551 L14.9533061,43.344551 L14.9537143,43.344551 C15.2747347,43.344551 15.5882041,43.2537347 15.8596327,43.0823061 C16.7724898,42.5059796 17.7163673,41.9098571 18.6033061,41.1767959 L18.6102449,41.1710816 L18.6167755,41.1655714 C20.0686122,39.9272041 21.415551,38.6039388 22.6200408,37.2335306 C23.8651429,35.8165918 24.9747347,34.3304694 25.9169796,32.8159796 C27.9322857,29.5774082 29.2071837,26.194551 29.7061633,22.7623061 C29.7149388,22.702102 29.720449,22.6406735 29.722898,22.5800612 C29.8243265,19.8725102 29.8088163,17.1272041 29.7937143,14.4725102" id="Fill-1" fill="#FFFFFF"></path>
                            <path d="M28.6792449,9.57495918 C28.681898,9.30842857 28.5037347,9.07414286 28.2463878,9.0047551 C25.2416939,8.19659184 22.1692449,7.57230612 19.1310816,6.85985714 L19.1280204,6.85904082 L18.624551,6.74740816 C18.5049592,6.71883673 18.3851633,6.79353061 18.3584286,6.91353061 C18.2590408,7.35883673 18.1816939,7.75046939 18.1447551,8.03026531 C17.9961837,9.15516327 17.5204694,12.4800612 17.4867959,12.7159796 C17.4855714,12.7247551 17.4849592,12.7335306 17.4849592,12.7425102 C17.4749592,13.3698571 16.777,13.8763878 15.9172041,13.8763878 L14.1384286,13.8763878 C13.2798571,13.8763878 12.5827143,13.3714898 12.5708776,12.7453673 C12.5706735,12.734551 12.5696531,12.7237347 12.5680204,12.7131224 C12.5227143,12.4457755 11.9249592,8.90781633 11.7257755,7.71393878 C11.6900612,7.49965306 11.6272041,7.217 11.547,6.89414286 C11.5455714,6.88883673 11.5441429,6.88353061 11.5423061,6.87802041 C11.5072041,6.77189796 11.3923061,6.71373469 11.2835306,6.73985714 C11.1359796,6.77516327 10.9884286,6.81006122 10.8408776,6.84455102 L10.8372041,6.84557143 C7.77904082,7.56373469 4.68536735,8.19108163 1.66026531,9.0047551 C1.40291837,9.07414286 1.2247551,9.30842857 1.22761224,9.57495918 C1.27189796,13.8949592 1.13373469,18.2225102 1.29577551,22.5380204 C1.29659184,22.559449 1.29822449,22.5808776 1.3014898,22.602102 C1.77230612,25.8404694 2.9547551,28.9280204 4.66577551,31.7884286 C6.55332653,34.9431224 9.08393878,37.8210816 12.0123061,40.3192449 C12.3627143,40.6090408 12.7274082,40.8790408 13.1012857,41.1378163 C13.272102,41.2563878 13.4978163,41.0951633 13.4402653,40.8953673 C13.3900612,40.7210816 13.341898,40.5467959 13.2951633,40.3716939 C12.1786327,36.194551 10.0306735,30.3884286 8.92434694,26.2065918 C8.68985714,25.4467959 10.0004694,24.5912857 9.53802041,23.909449 C9.51985714,23.882102 9.49904082,23.857 9.47618367,23.8335306 C8.06128571,22.3712857 6.13842857,21.3053673 4.63597959,19.9357755 C4.60944898,19.9114898 4.58495918,19.8851633 4.56353061,19.8561837 C3.90802041,18.9755714 3.74414286,17.7398571 3.44985714,16.734551 C3.32414286,16.3325102 3.39006122,15.8210816 3.82863265,15.8210816 C3.92822449,15.8210816 4.04720408,15.8476122 4.18761224,15.9078163 C7.07720408,17.1667959 10.0814898,16.1349592 12.8525102,17.5888367 C13.0637347,17.6996531 13.1849592,17.9284286 13.1610816,18.1657755 C12.9947551,19.8159796 12.7067959,23.672102 12.7276122,25.3237347 C12.7288367,25.4057755 12.7478163,25.4863878 12.782102,25.5606735 C13.2143469,26.4965918 13.8533265,27.3749592 14.4806735,28.2374082 C14.5972041,28.3978163 14.7751633,28.4782245 14.9533265,28.4782245 C15.1312857,28.4782245 15.3092449,28.3978163 15.4261837,28.2374082 C16.0533265,27.3749592 16.6923061,26.4965918 17.1243469,25.5606735 C17.1586327,25.4863878 17.1778163,25.4057755 17.1788367,25.3237347 C17.1996531,23.672102 16.911898,19.8159796 16.7453673,18.1657755 C16.7214898,17.9284286 16.8427143,17.6996531 17.0541429,17.5888367 C19.8251633,16.1349592 22.829449,17.1667959 25.7190408,15.9078163 C25.859449,15.8476122 25.9784286,15.8210816 26.0780204,15.8210816 C26.5165918,15.8210816 26.5825102,16.3325102 26.4565918,16.734551 C26.1623061,17.7398571 25.9986327,18.9755714 25.3429184,19.8561837 C25.3214898,19.8851633 25.297,19.9114898 25.2704694,19.9357755 C23.7682245,21.3053673 21.8451633,22.3712857 20.4304694,23.8335306 C20.4078163,23.857 20.3867959,23.882102 20.3684286,23.909449 C19.9061837,24.5912857 21.2167959,25.4467959 20.9823061,26.2065918 C19.8757755,30.3884286 17.7280204,36.194551 16.6114898,40.3716939 C16.5647551,40.5467959 16.5163878,40.7212857 16.4663878,40.8953673 C16.4088367,41.0951633 16.6343469,41.2563878 16.8053673,41.1380204 C17.1792449,40.8790408 17.5439388,40.6090408 17.894551,40.3192449 C23.4776122,35.5563878 27.6149592,29.412102 28.6049592,22.602102 C28.6082245,22.5808776 28.6100612,22.559449 28.6110816,22.5380204 C28.7727143,18.2225102 28.6347551,13.8949592 28.6792449,9.57495918" id="Fill-5" fill="url(#linearGradient-6)"></path>
                        </g>
                    </g>
                </g>
            </g>
        </g>
    </g>
</svg>