<?xml version="1.0" encoding="UTF-8"?>
<svg width="263px" height="63px" viewBox="0 0 263 63" version="1.1" xmlns="http://www.w3.org/2000/svg" xmlns:xlink="http://www.w3.org/1999/xlink">
    <!-- Generator: Sketch 58 (84663) - https://sketch.com -->
    <title>Logo</title>
    <desc>Created with Sketch.</desc>
    <defs>
        <filter x="-7.6%" y="-42.0%" width="114.7%" height="184.1%" filterUnits="objectBoundingBox" id="filter-1">
            <feOffset dx="0" dy="0" in="SourceAlpha" result="shadowOffsetOuter1"></feOffset>
            <feGaussianBlur stdDeviation="4.5" in="shadowOffsetOuter1" result="shadowBlurOuter1"></feGaussianBlur>
            <feColorMatrix values="0 0 0 0 0.0666666667   0 0 0 0 0.207843137   0 0 0 0 0.301960784  0 0 0 0.591318837 0" type="matrix" in="shadowBlurOuter1" result="shadowMatrixOuter1"></feColorMatrix>
            <feMerge>
                <feMergeNode in="shadowMatrixOuter1"></feMergeNode>
                <feMergeNode in="SourceGraphic"></feMergeNode>
            </feMerge>
        </filter>
        <polygon id="path-2" points="0 0.084305685 24.8884436 0.084305685 24.8884436 21.248891 0 21.248891"></polygon>
        <polygon id="path-4" points="0.0351910531 0.0852190121 24.7686486 0.0852190121 24.7686486 22.1808015 0.0351910531 22.1808015"></polygon>
        <linearGradient x1="50%" y1="0%" x2="50%" y2="100%" id="linearGradient-6">
            <stop stop-color="#CCAF74" offset="0%"></stop>
            <stop stop-color="#8F7E59" offset="100%"></stop>
        </linearGradient>
    </defs>
    <g id="Page-1" stroke="none" stroke-width="1" fill="none" fill-rule="evenodd">
        <g id="Planning-Page" transform="translate(-17.000000, -22.000000)">
            <g id="Sidemenu">
                <g id="Logo" filter="url(#filter-1)" transform="translate(27.000000, 32.000000)">
                    <g id="phalanx-text" transform="translate(45.000000, 13.000000)">
                        <path d="M48.0695806,20.5355266 L48.0695806,14.1619944 C48.0695806,13.6246226 47.6339795,13.1890214 47.0966076,13.1890214 L33.5262442,13.1890214 C32.9888723,13.1890214 32.5530848,13.6246226 32.5530848,14.1619944 L32.5530848,20.4842684 C32.5530848,21.1170736 32.0401305,21.630028 31.4073253,21.630028 L28.1709786,21.630028 C27.9860764,21.630028 27.8362162,21.4799814 27.8362162,21.2952656 L27.8362162,0.800205033 C27.8362162,0.615489282 27.9860764,0.465442684 28.1709786,0.465442684 L31.4462815,0.465442684 C32.0576514,0.465442684 32.5530848,0.961062442 32.5530848,1.57243243 L32.5530848,8.11968313 C32.5530848,8.65686859 32.9888723,9.0926561 33.5262442,9.0926561 L47.0966076,9.0926561 C47.6339795,9.0926561 48.0695806,8.65686859 48.0695806,8.11968313 L48.0695806,1.5873439 C48.0695806,0.9677726 48.5719105,0.465442684 49.1914818,0.465442684 L52.420932,0.465442684 C52.6056477,0.465442684 52.7556943,0.615489282 52.7556943,0.800205033 L52.7556943,21.2952656 C52.7556943,21.4799814 52.6056477,21.630028 52.420932,21.630028 L49.164082,21.630028 C48.5596086,21.630028 48.0695806,21.14 48.0695806,20.5355266" id="Fill-1" fill="#FFFFFF"></path>
                        <g id="Group-5" transform="translate(0.000000, 0.381174)">
                            <mask id="mask-3" fill="white">
                                <use xlink:href="#path-2"></use>
                            </mask>
                            <g id="Clip-4"></g>
                            <path d="M20.1713886,7.097726 C20.1713886,5.96016775 19.927959,5.18439888 19.4420317,4.77041938 C18.9557316,4.35662628 18.0815471,4.14972973 16.8198509,4.14972973 L4.86999068,4.14972973 C4.78555452,4.14972973 4.71696179,4.21832246 4.71696179,4.30275862 L4.71696179,11.0610065 C4.71696179,11.2373346 4.85992544,11.3804846 5.03643989,11.3804846 L16.8819199,11.3804846 C18.1231128,11.3804846 18.9814539,11.1892451 19.4575023,10.8062069 C19.9333644,10.4237279 20.1713886,9.67349487 20.1713886,8.55625349 L20.1713886,7.097726 Z M4.71696179,15.5169245 L4.71696179,20.1223299 C4.71696179,20.7445107 4.21258155,21.248891 3.59040075,21.248891 L0.276700839,21.248891 C0.123858341,21.248891 -9.31966449e-05,21.1249394 -9.31966449e-05,20.9722833 L-9.31966449e-05,0.360913327 C-9.31966449e-05,0.208257223 0.123858341,0.084305685 0.276700839,0.084305685 L16.9439888,0.084305685 C18.4539609,0.084305685 19.7160298,0.203783784 20.7300093,0.441248835 C21.7434296,0.679086673 22.5609506,1.0727493 23.1816403,1.62037279 C23.8021435,2.16892824 24.2414725,2.87722274 24.5005592,3.74618826 C24.7589003,4.61515377 24.8884436,5.67032619 24.8884436,6.9117055 L24.8884436,8.74264678 C24.8884436,10.0049021 24.7643057,11.0496365 24.5160298,11.8770363 C24.267754,12.7044362 23.8381174,13.3665051 23.2280522,13.8630568 C22.6178006,14.3596086 21.8054986,14.7061137 20.7920783,14.9025722 C19.7782852,15.0994035 18.4955266,15.19726 16.9439888,15.19726 L5.03643989,15.19726 C4.85992544,15.19726 4.71696179,15.3404101 4.71696179,15.5169245 L4.71696179,15.5169245 Z" id="Fill-3" fill="#FFFFFF" mask="url(#mask-3)"></path>
                        </g>
                        <path d="M95.3015471,21.6300466 C93.7498229,21.6300466 92.4566263,21.5012488 91.4225163,21.2419758 C90.3876608,20.9836347 89.5604473,20.570028 88.9397577,20.0007829 C88.3192544,19.4320969 87.8793663,18.6872693 87.6208388,17.7663001 C87.3619385,16.8460764 87.2329543,15.7135508 87.2329543,14.3683504 L87.2329543,0.927716682 C87.2329543,0.672357875 87.4398509,0.465461323 87.6950233,0.465461323 L90.7850513,0.465461323 C91.4113327,0.465461323 91.919068,0.973196645 91.919068,1.5994781 L91.919068,14.1821435 C91.919068,14.8026468 91.9755452,15.32548 92.0896179,15.7491519 C92.202945,16.1735694 92.4046226,16.5249208 92.6948369,16.8043243 C92.9841193,17.0835415 93.3721901,17.285219 93.8584902,17.4093569 C94.3442311,17.5334949 94.9600746,17.5957502 95.7050885,17.5957502 L107.12,17.5957502 C107.756906,17.5957502 108.273215,18.112246 108.273215,18.7491519 L108.273215,21.1679776 C108.273215,21.42315 108.066505,21.6300466 107.811333,21.6300466 L95.3015471,21.6300466 Z" id="Fill-6" fill="#FFFFFF"></path>
                        <g id="Group-10" transform="translate(142.777260, 0.008388)">
                            <mask id="mask-5" fill="white">
                                <use xlink:href="#path-4"></use>
                            </mask>
                            <g id="Clip-9"></g>
                            <path d="M22.410028,22.1808388 C21.9134762,22.1808388 21.4528984,22.1032992 21.0288537,21.9480336 C20.6048089,21.7927679 20.2064865,21.5398322 19.8346319,21.1877353 L5.18971109,7.39761417 C4.8950233,7.11988816 4.41114632,7.32902144 4.41114632,7.73405405 L4.41114632,20.5972414 C4.41114632,21.214576 3.91049394,21.7152283 3.29297297,21.7152283 L0.396421249,21.7152283 C0.196980429,21.7152283 0.0351910531,21.5536253 0.0351910531,21.3539981 L0.0351910531,2.04029823 C0.0351910531,1.37860205 0.267996272,0.887269338 0.73360671,0.566300093 C1.19903075,0.245703635 1.80424977,0.0852190121 2.54889096,0.0852190121 C3.0866356,0.0852190121 3.53136999,0.158098788 3.88328052,0.302553588 C4.23481827,0.447381174 4.52428705,0.633588071 4.75224604,0.860987884 L19.5170177,15.0952842 C19.8107735,15.3784157 20.3000559,15.1704007 20.3000559,14.7627586 L20.3000559,1.67366263 C20.3000559,1.05353215 20.8027586,0.55082945 21.4228891,0.55082945 L24.3774091,0.55082945 C24.593439,0.55082945 24.7686486,0.726039143 24.7686486,0.942255359 L24.7686486,20.2257596 C24.7686486,20.9292078 24.5513141,21.431165 24.1170177,21.7308854 C23.6821622,22.0304194 23.1131034,22.1808388 22.410028,22.1808388" id="Fill-8" fill="#FFFFFF" mask="url(#mask-5)"></path>
                        </g>
                        <path d="M193.475377,21.5596086 L185.010513,13.6973532 C184.909115,13.6032246 184.752358,13.603411 184.651333,13.6975396 L176.217409,21.5592358 C176.168574,21.6047158 176.104455,21.6300652 176.03754,21.6300652 L170.249282,21.6300652 C170.007717,21.6300652 169.893271,21.3320224 170.072768,21.1704194 L181.508742,10.8725629 C181.625424,10.7674371 181.624865,10.5840261 181.507437,10.4796459 L170.763355,0.926244175 C170.582367,0.765013979 170.696253,0.465479963 170.938565,0.465479963 L176.938006,0.465479963 C177.004734,0.465479963 177.068854,0.49082945 177.117502,0.53612302 L184.93521,7.81254427 C185.034557,7.90499534 185.187586,7.90704567 185.289357,7.8172041 L193.538378,0.531649581 C193.586654,0.488965517 193.648723,0.465479963 193.712842,0.465479963 L199.340801,0.465479963 C199.583486,0.465479963 199.697185,0.765759553 199.515266,0.926616962 L188.742293,10.4511277 C188.625424,10.554576 188.623374,10.7364958 188.738006,10.8423672 L199.914893,21.1728425 C200.090848,21.3357502 199.975657,21.6300652 199.735955,21.6300652 L193.654688,21.6300652 C193.588145,21.6300652 193.524026,21.6049021 193.475377,21.5596086" id="Fill-11" fill="#FFFFFF"></path>
                        <path d="M73.5473144,14.4681081 C73.5435788,16.1301771 72.1931594,17.4746319 70.5310904,17.4707261 C68.8690214,17.4671761 67.5245666,16.1167568 67.5282868,14.4546878 C67.5322088,12.7926188 68.8824418,11.448164 70.5445107,11.4516985 C72.2067661,11.4556198 73.5510345,12.8060391 73.5473144,14.4681081" id="Fill-13" fill="#CCAF74"></path>
                        <path d="M74.2302144,2.07929171 C73.8578006,1.47929171 73.4126934,0.982739981 72.8958248,0.589636533 C72.378397,0.196719478 71.6438211,7.45573159e-05 70.6922833,7.45573159e-05 C69.7196831,7.45573159e-05 68.9748555,0.196719478 68.457987,0.589636533 C67.9407456,0.982739981 67.4960112,1.47929171 67.1235974,2.07929171 L55.1828705,21.0759366 C55.0315191,21.3167568 55.2046785,21.6300839 55.4889282,21.6300839 L59.0274185,21.6300839 C59.7979683,21.6300839 60.5135322,21.233439 60.9213607,20.5793849 C61.5105499,19.6347437 62.2941473,18.3741659 62.3683318,18.2362349 C62.4078472,18.1687605 63.2755079,16.7577633 63.2755079,16.7577633 L65.478863,13.1270084 L70.291165,5.28171482 C70.4322647,5.05151911 70.7664678,5.05151911 70.9075676,5.28171482 L80.3137185,20.5663374 C80.7194967,21.2256104 81.4367381,21.627288 82.2108295,21.6278472 C83.6443802,21.6287791 85.8044921,21.6300839 85.8044921,21.6300839 C86.0885555,21.6300839 86.2617148,21.3175023 86.111109,21.0766822 L74.2302144,2.07929171 Z" id="Fill-15" fill="#FFFFFF"></path>
                        <path d="M128.34696,14.4681081 C128.343038,16.1301771 126.992805,17.4746319 125.33055,17.4707261 C123.668481,17.4671761 122.324212,16.1167568 122.327933,14.4546878 C122.331855,12.7926188 123.682274,11.448164 125.344343,11.4516985 C127.006412,11.4556198 128.35068,12.8060391 128.34696,14.4681081" id="Fill-17" fill="#CCAF74"></path>
                        <path d="M140.910662,21.0766822 L129.029953,2.07929171 C128.65754,1.47929171 128.212246,0.982739981 127.695564,0.589636533 C127.17795,0.196719478 126.44356,7.45573159e-05 125.492022,7.45573159e-05 C124.519422,7.45573159e-05 123.774408,0.196719478 123.25754,0.589636533 C122.740298,0.982739981 122.29575,1.47929171 121.923336,2.07929171 L109.982423,21.0759366 C109.831072,21.3167568 110.004231,21.6300839 110.288667,21.6300839 L113.826971,21.6300839 C114.597521,21.6300839 115.313271,21.233439 115.720913,20.5793849 C116.310289,19.6347437 117.093886,18.3741659 117.167884,18.2362349 C117.2074,18.1687605 118.075247,16.7577633 118.075247,16.7577633 L120.278602,13.1270084 L125.090718,5.28171482 C125.232004,5.05151911 125.566207,5.05151911 125.707307,5.28171482 L135.113271,20.5663374 C135.519049,21.2256104 136.236477,21.627288 137.010568,21.6278472 C138.444119,21.6287791 140.604045,21.6300839 140.604045,21.6300839 C140.888295,21.6300839 141.061454,21.3175023 140.910662,21.0766822" id="Fill-19" fill="#FFFFFF"></path>
                    </g>
                    <g id="icon">
                        <path d="M29.7937143,14.4725102 C29.7845306,12.8692449 29.7751429,11.2112857 29.7918776,9.58618367 C29.7922857,9.53659184 29.7906531,9.48761224 29.7867755,9.4392449 C29.7865714,9.43414286 29.7863673,9.42883673 29.7863673,9.42373469 L29.7863673,5.80087755 C29.7863673,5.42618367 29.522898,5.10353061 29.1559592,5.02822449 C28.5188163,4.89761224 28.3182041,5.02985714 26.5192245,5.44128571 C23.6592245,6.09516327 19.663102,4.10189796 19.3626939,3.94904082 C19.3439184,3.93944898 19.3265714,3.92740816 19.3114694,3.91271429 C19.2622857,3.86516327 19.1822857,3.75271429 19.2418776,3.55618367 C19.2420816,3.55577551 19.2420816,3.55577551 19.2420816,3.55557143 C19.3510612,3.15618367 19.4335102,2.86189796 19.4653469,2.7492449 C19.4788163,2.70087755 19.4765714,2.64904082 19.4559592,2.60353061 C19.1416735,1.90128571 15.7520816,0.163938776 14.9553469,0.103734694 L14.9553469,0.103734694 C14.9547347,0.103734694 14.9539184,0.103734694 14.9533061,0.103734694 C14.9526939,0.103734694 14.9518776,0.103734694 14.9512653,0.103734694 L14.9512653,0.103734694 C14.1543265,0.163938776 10.7649388,1.90128571 10.4506531,2.60353061 C10.4300408,2.64904082 10.4277959,2.70087755 10.4412653,2.7492449 C10.473102,2.86189796 10.555551,3.15618367 10.6647347,3.55557143 C10.6647347,3.55577551 10.6647347,3.55577551 10.6649388,3.55618367 C10.7243265,3.75271429 10.6443265,3.86516327 10.5951429,3.91271429 C10.5800408,3.92740816 10.5624898,3.93944898 10.5437143,3.94904082 C10.2435102,4.10189796 6.24738776,6.09516327 3.38738776,5.44128571 C1.58840816,5.02985714 1.388,4.89761224 0.750857143,5.02822449 C0.383918367,5.10353061 0.12044898,5.42618367 0.12044898,5.80087755 L0.12044898,9.42373469 C0.12044898,9.42883673 0.120040816,9.43414286 0.119632653,9.4392449 C0.115959184,9.48761224 0.114326531,9.53659184 0.114938776,9.58618367 C0.131469388,11.2112857 0.122285714,12.8692449 0.112897959,14.4725102 C0.098,17.1272041 0.0824897959,19.8725102 0.183918367,22.5800612 C0.186163265,22.6406735 0.191877551,22.702102 0.20044898,22.7623061 C0.699428571,26.194551 1.97453061,29.5774082 3.98983673,32.8159796 C4.93208163,34.3304694 6.04146939,35.8165918 7.28677551,37.2335306 C8.49126531,38.6039388 9.838,39.9272041 11.2900408,41.1655714 L11.2965714,41.1710816 L11.303102,41.1767959 C12.190449,41.9098571 13.1341224,42.5059796 14.0469796,43.0823061 C14.3186122,43.2537347 14.6318776,43.344551 14.952898,43.344551 L14.9533061,43.344551 L14.9537143,43.344551 C15.2747347,43.344551 15.5882041,43.2537347 15.8596327,43.0823061 C16.7724898,42.5059796 17.7163673,41.9098571 18.6033061,41.1767959 L18.6102449,41.1710816 L18.6167755,41.1655714 C20.0686122,39.9272041 21.415551,38.6039388 22.6200408,37.2335306 C23.8651429,35.8165918 24.9747347,34.3304694 25.9169796,32.8159796 C27.9322857,29.5774082 29.2071837,26.194551 29.7061633,22.7623061 C29.7149388,22.702102 29.720449,22.6406735 29.722898,22.5800612 C29.8243265,19.8725102 29.8088163,17.1272041 29.7937143,14.4725102" id="Fill-1" stroke="#FFFFFF" stroke-width="2" fill="#FFFFFF"></path>
                        <path d="M29.7937143,14.4725102 C29.7845306,12.8692449 29.7751429,11.2112857 29.7918776,9.58618367 C29.7922857,9.53659184 29.7906531,9.48761224 29.7867755,9.4392449 C29.7865714,9.43414286 29.7863673,9.42883673 29.7863673,9.42373469 L29.7863673,5.80087755 C29.7863673,5.42618367 29.522898,5.10353061 29.1559592,5.02822449 C28.5188163,4.89761224 28.3182041,5.02985714 26.5192245,5.44128571 C23.6592245,6.09516327 19.663102,4.10189796 19.3626939,3.94904082 C19.3439184,3.93944898 19.3265714,3.92740816 19.3114694,3.91271429 C19.2622857,3.86516327 19.1822857,3.75271429 19.2418776,3.55618367 C19.2420816,3.55577551 19.2420816,3.55577551 19.2420816,3.55557143 C19.3510612,3.15618367 19.4335102,2.86189796 19.4653469,2.7492449 C19.4788163,2.70087755 19.4765714,2.64904082 19.4559592,2.60353061 C19.1416735,1.90128571 15.7520816,0.163938776 14.9553469,0.103734694 L14.9553469,0.103734694 C14.9547347,0.103734694 14.9539184,0.103734694 14.9533061,0.103734694 C14.9526939,0.103734694 14.9518776,0.103734694 14.9512653,0.103734694 L14.9512653,0.103734694 C14.1543265,0.163938776 10.7649388,1.90128571 10.4506531,2.60353061 C10.4300408,2.64904082 10.4277959,2.70087755 10.4412653,2.7492449 C10.473102,2.86189796 10.555551,3.15618367 10.6647347,3.55557143 C10.6647347,3.55577551 10.6647347,3.55577551 10.6649388,3.55618367 C10.7243265,3.75271429 10.6443265,3.86516327 10.5951429,3.91271429 C10.5800408,3.92740816 10.5624898,3.93944898 10.5437143,3.94904082 C10.2435102,4.10189796 6.24738776,6.09516327 3.38738776,5.44128571 C1.58840816,5.02985714 1.388,4.89761224 0.750857143,5.02822449 C0.383918367,5.10353061 0.12044898,5.42618367 0.12044898,5.80087755 L0.12044898,9.42373469 C0.12044898,9.42883673 0.120040816,9.43414286 0.119632653,9.4392449 C0.115959184,9.48761224 0.114326531,9.53659184 0.114938776,9.58618367 C0.131469388,11.2112857 0.122285714,12.8692449 0.112897959,14.4725102 C0.098,17.1272041 0.0824897959,19.8725102 0.183918367,22.5800612 C0.186163265,22.6406735 0.191877551,22.702102 0.20044898,22.7623061 C0.699428571,26.194551 1.97453061,29.5774082 3.98983673,32.8159796 C4.93208163,34.3304694 6.04146939,35.8165918 7.28677551,37.2335306 C8.49126531,38.6039388 9.838,39.9272041 11.2900408,41.1655714 L11.2965714,41.1710816 L11.303102,41.1767959 C12.190449,41.9098571 13.1341224,42.5059796 14.0469796,43.0823061 C14.3186122,43.2537347 14.6318776,43.344551 14.952898,43.344551 L14.9533061,43.344551 L14.9537143,43.344551 C15.2747347,43.344551 15.5882041,43.2537347 15.8596327,43.0823061 C16.7724898,42.5059796 17.7163673,41.9098571 18.6033061,41.1767959 L18.6102449,41.1710816 L18.6167755,41.1655714 C20.0686122,39.9272041 21.415551,38.6039388 22.6200408,37.2335306 C23.8651429,35.8165918 24.9747347,34.3304694 25.9169796,32.8159796 C27.9322857,29.5774082 29.2071837,26.194551 29.7061633,22.7623061 C29.7149388,22.702102 29.720449,22.6406735 29.722898,22.5800612 C29.8243265,19.8725102 29.8088163,17.1272041 29.7937143,14.4725102" id="Fill-1" fill="#FFFFFF"></path>
                        <path d="M28.6792449,9.57495918 C28.681898,9.30842857 28.5037347,9.07414286 28.2463878,9.0047551 C25.2416939,8.19659184 22.1692449,7.57230612 19.1310816,6.85985714 L19.1280204,6.85904082 L18.624551,6.74740816 C18.5049592,6.71883673 18.3851633,6.79353061 18.3584286,6.91353061 C18.2590408,7.35883673 18.1816939,7.75046939 18.1447551,8.03026531 C17.9961837,9.15516327 17.5204694,12.4800612 17.4867959,12.7159796 C17.4855714,12.7247551 17.4849592,12.7335306 17.4849592,12.7425102 C17.4749592,13.3698571 16.777,13.8763878 15.9172041,13.8763878 L14.1384286,13.8763878 C13.2798571,13.8763878 12.5827143,13.3714898 12.5708776,12.7453673 C12.5706735,12.734551 12.5696531,12.7237347 12.5680204,12.7131224 C12.5227143,12.4457755 11.9249592,8.90781633 11.7257755,7.71393878 C11.6900612,7.49965306 11.6272041,7.217 11.547,6.89414286 C11.5455714,6.88883673 11.5441429,6.88353061 11.5423061,6.87802041 C11.5072041,6.77189796 11.3923061,6.71373469 11.2835306,6.73985714 C11.1359796,6.77516327 10.9884286,6.81006122 10.8408776,6.84455102 L10.8372041,6.84557143 C7.77904082,7.56373469 4.68536735,8.19108163 1.66026531,9.0047551 C1.40291837,9.07414286 1.2247551,9.30842857 1.22761224,9.57495918 C1.27189796,13.8949592 1.13373469,18.2225102 1.29577551,22.5380204 C1.29659184,22.559449 1.29822449,22.5808776 1.3014898,22.602102 C1.77230612,25.8404694 2.9547551,28.9280204 4.66577551,31.7884286 C6.55332653,34.9431224 9.08393878,37.8210816 12.0123061,40.3192449 C12.3627143,40.6090408 12.7274082,40.8790408 13.1012857,41.1378163 C13.272102,41.2563878 13.4978163,41.0951633 13.4402653,40.8953673 C13.3900612,40.7210816 13.341898,40.5467959 13.2951633,40.3716939 C12.1786327,36.194551 10.0306735,30.3884286 8.92434694,26.2065918 C8.68985714,25.4467959 10.0004694,24.5912857 9.53802041,23.909449 C9.51985714,23.882102 9.49904082,23.857 9.47618367,23.8335306 C8.06128571,22.3712857 6.13842857,21.3053673 4.63597959,19.9357755 C4.60944898,19.9114898 4.58495918,19.8851633 4.56353061,19.8561837 C3.90802041,18.9755714 3.74414286,17.7398571 3.44985714,16.734551 C3.32414286,16.3325102 3.39006122,15.8210816 3.82863265,15.8210816 C3.92822449,15.8210816 4.04720408,15.8476122 4.18761224,15.9078163 C7.07720408,17.1667959 10.0814898,16.1349592 12.8525102,17.5888367 C13.0637347,17.6996531 13.1849592,17.9284286 13.1610816,18.1657755 C12.9947551,19.8159796 12.7067959,23.672102 12.7276122,25.3237347 C12.7288367,25.4057755 12.7478163,25.4863878 12.782102,25.5606735 C13.2143469,26.4965918 13.8533265,27.3749592 14.4806735,28.2374082 C14.5972041,28.3978163 14.7751633,28.4782245 14.9533265,28.4782245 C15.1312857,28.4782245 15.3092449,28.3978163 15.4261837,28.2374082 C16.0533265,27.3749592 16.6923061,26.4965918 17.1243469,25.5606735 C17.1586327,25.4863878 17.1778163,25.4057755 17.1788367,25.3237347 C17.1996531,23.672102 16.911898,19.8159796 16.7453673,18.1657755 C16.7214898,17.9284286 16.8427143,17.6996531 17.0541429,17.5888367 C19.8251633,16.1349592 22.829449,17.1667959 25.7190408,15.9078163 C25.859449,15.8476122 25.9784286,15.8210816 26.0780204,15.8210816 C26.5165918,15.8210816 26.5825102,16.3325102 26.4565918,16.734551 C26.1623061,17.7398571 25.9986327,18.9755714 25.3429184,19.8561837 C25.3214898,19.8851633 25.297,19.9114898 25.2704694,19.9357755 C23.7682245,21.3053673 21.8451633,22.3712857 20.4304694,23.8335306 C20.4078163,23.857 20.3867959,23.882102 20.3684286,23.909449 C19.9061837,24.5912857 21.2167959,25.4467959 20.9823061,26.2065918 C19.8757755,30.3884286 17.7280204,36.194551 16.6114898,40.3716939 C16.5647551,40.5467959 16.5163878,40.7212857 16.4663878,40.8953673 C16.4088367,41.0951633 16.6343469,41.2563878 16.8053673,41.1380204 C17.1792449,40.8790408 17.5439388,40.6090408 17.894551,40.3192449 C23.4776122,35.5563878 27.6149592,29.412102 28.6049592,22.602102 C28.6082245,22.5808776 28.6100612,22.559449 28.6110816,22.5380204 C28.7727143,18.2225102 28.6347551,13.8949592 28.6792449,9.57495918" id="Fill-5" fill="url(#linearGradient-6)"></path>
                    </g>
                </g>
            </g>
        </g>
    </g>
</svg>